<?xml version="1.0" encoding="utf-8"?>
<!-- Generator: Adobe Illustrator 24.1.3, SVG Export Plug-In . SVG Version: 6.00 Build 0)  -->
<svg version="1.1" id="Layer_1" xmlns="http://www.w3.org/2000/svg" xmlns:xlink="http://www.w3.org/1999/xlink" x="0px" y="0px"
	 viewBox="0 0 539 586" style="enable-background:new 0 0 539 586;" xml:space="preserve">
<style type="text/css">
	.st0{opacity:0.1;fill:#00ACFA;}
	.st1{fill:#FFFFFF;}
	.st2{fill:#FFFFFF;stroke:#000057;stroke-width:3;stroke-linejoin:round;stroke-miterlimit:10;}
	.st3{fill:#DADADA;}
	.st4{opacity:0.33;fill:#666666;}
	.st5{fill:none;stroke:#000057;stroke-width:2.9966;stroke-miterlimit:10;}
	.st6{fill:#00002F;}
	.st7{fill:#00ACFA;}
	.st8{fill:url(#SVGID_1_);}
	.st9{fill:#000058;}
	.st10{fill:url(#SVGID_2_);}
	.st11{fill:url(#SVGID_3_);}
	.st12{fill:none;stroke:#000058;stroke-width:2.9966;stroke-miterlimit:10;}
	.st13{fill:url(#SVGID_4_);}
	.st14{fill:none;stroke:#000044;stroke-width:2.9966;stroke-linejoin:round;stroke-miterlimit:10;}
	.st15{fill:#FA441C;}
	.st16{opacity:0.57;fill:#FA441C;}
	.st17{fill:#8D8D8D;}
	.st18{fill:none;stroke:#000057;stroke-width:2.9966;stroke-linejoin:round;stroke-miterlimit:10;}
	.st19{fill:#3FA8F4;}
	.st20{fill:#FF6C46;}
	.st21{fill:#FFFFFF;stroke:#4D4D4D;stroke-width:4.3702;stroke-miterlimit:10;}
	.st22{fill:none;stroke:#000057;stroke-width:3;stroke-miterlimit:10;}
	.st23{opacity:0.18;fill:#FFFFFF;}
	.st24{fill:none;stroke:#000057;stroke-width:3;stroke-linecap:round;stroke-miterlimit:10;}
	.st25{fill:none;stroke:#000057;stroke-width:3;stroke-linecap:round;stroke-linejoin:round;stroke-miterlimit:10;}
	.st26{fill:#8D8D8D;stroke:#000057;stroke-width:3;stroke-miterlimit:10;}
	.st27{fill:#FF6C46;stroke:#000057;stroke-width:3;stroke-linejoin:round;stroke-miterlimit:10;}
	.st28{fill:#FF6C46;stroke:#000057;stroke-width:3;stroke-miterlimit:10;}
	.st29{fill:#8D8D8D;stroke:#000057;stroke-width:3;stroke-linejoin:round;stroke-miterlimit:10;}
	.st30{fill:#666666;stroke:#000057;stroke-width:2;stroke-linecap:round;stroke-miterlimit:10;}
	.st31{fill:none;stroke:#000057;stroke-width:2;stroke-linecap:round;stroke-miterlimit:10;}
	.st32{fill:none;stroke:#000057;stroke-width:2;stroke-linecap:round;stroke-linejoin:round;stroke-miterlimit:10;}
	.st33{fill:#8D8D8D;stroke:#000057;stroke-width:2;stroke-linecap:round;stroke-miterlimit:10;}
	.st34{opacity:0.56;fill:#DADADA;}
	.st35{fill:#FFFFFF;stroke:#000057;stroke-width:3;stroke-miterlimit:10;}
	.st36{opacity:0.67;fill:#FFFFFF;}
	.st37{fill:none;stroke:#000057;stroke-width:3;stroke-linejoin:round;stroke-miterlimit:10;}
	.st38{fill:none;}
	.st39{enable-background:new    ;}
	.st40{fill:#00D6FE;}
	.st41{fill:#1A1A82;}
	.st42{fill:#DADADA;stroke:#000044;stroke-width:3;stroke-linejoin:round;stroke-miterlimit:10;}
	.st43{fill:#FFFFFF;stroke:#000044;stroke-width:3;stroke-linejoin:round;stroke-miterlimit:10;}
	.st44{fill:#00D6FE;stroke:#000057;stroke-width:3;stroke-linejoin:round;stroke-miterlimit:10;}
	.st45{fill:#00D6FE;stroke:#000057;stroke-width:2;stroke-miterlimit:10;}
	.st46{fill:#000057;}
	.st47{fill:none;stroke:#000057;stroke-width:2;stroke-miterlimit:10;}
	.st48{fill:#00D6FE;stroke:#000057;stroke-width:2;stroke-linejoin:round;stroke-miterlimit:10;}
</style>
<circle class="st0" cx="269.5" cy="293" r="227.5"/>
<g>
	<path class="st1" d="M346.01,127.12c0,0-2.68-8.39-7.99-10.17l-1.95,0.11c0,0-0.88,4.19-21.73,5.32s-22.27-2.92-22.27-2.92
		l-1.95,0.11c-5.11,2.35-6.96,10.99-6.96,10.99L346.01,127.12z"/>
	<path class="st1" d="M292.29,105.17v14.46c0,0,0,3.44,21.53,3.44c20.23,0,21.82-5.39,21.82-5.39l-0.94-10.44"/>
</g>
<g>
	<path class="st2" d="M292.29,105.17v14.46c0,0-0.85,5.73,20.68,5.73c20.23,0,22.68-7.68,22.68-7.68l-0.94-10.44"/>
</g>
<g>
	<g>
		<path class="st1" d="M243.85,71.85c-14.09-16.42-43.47-4.25-43.47-4.25c-15.76,4.44-23.84,34.83-17.44,72.9
			s23.56,64.2,40.61,64.95c0,0,29.02,1.02,34.77-6.05"/>
		<path class="st3" d="M185.22,150.13c0,0,5.79,30.31,18.27,42.81l-3.83-10.8c0,0,4.08,9.2,6.79,11.03l-3.4-7.97
			c0,0,7.47,9.2,9.51,10.42l-4.08-7.36c0,0,6.11,6.13,10.19,6.74l-4.08-7.36c0,0,6.11,4.29,8.83,4.9l-5.43-7.36l4.08,3.68
			l-2.72-6.74l5.43,6.74l-2.72-6.13l6.79,6.74c0,0-13.71-25.58-17.73-46.81c0,0-1.49,2.94-1.44,5.32c0.01,0.36,0.05,0.71,0.14,1.03
			c0.68,2.45-3.4-11.65-3.4-11.65s0.68,13.49,2.04,16.55l-3.4-9.81c0,0-0.68,4.9,0.68,9.2c0,0-3.4-4.29-4.76-10.42
			c0,0-0.68,9.2,0.68,11.03c0,0-4.08-11.03-4.08-13.49c0-2.45,0,5.52,0,5.52l-3.4-6.74c0,0,2.04,14.71,2.72,16.55l-3.4-9.81
			c0,0,1.36,10.42,1.36,11.65c0,1.23-4.08-16.55-4.08-16.55l0.68,13.49l-4.08-13.49c0,0,1.36,9.2,1.36,10.42
			c0,1.23-4.76-13.49-4.76-13.49S185.04,148.16,185.22,150.13z"/>
		
			<ellipse transform="matrix(0.9851 -0.1722 0.1722 0.9851 -19.4589 43.2553)" class="st3" cx="239.64" cy="133.81" rx="29.28" ry="69.9"/>
		
			<ellipse transform="matrix(0.9851 -0.1722 0.1722 0.9851 -19.4589 43.2553)" class="st4" cx="239.64" cy="133.81" rx="21.6" ry="51.55"/>
		<path class="st3" d="M182.68,92.03c0,0-1.25,10.55-1.79,17.47c-0.15,1.91-0.24,3.54-0.24,4.6l4.76-8.58c0,0-1.36,11.65-2.04,14.1
			l3.4-11.03l0.68,6.74c0,0,2.04-11.03,3.4-12.26c1.36-1.23,0.68,7.36,0.68,7.36l2.04-8.58c0,0,2.04,8.58,2.04,9.81
			c0,1.23,0.68-11.03,0.68-11.03s1.36,14.71,2.04,15.33l1.36-13.49c0,0,0.68,11.03,1.36,11.65c0.68,0.61,0.68-12.87,0.68-12.87
			l2.72,10.42l0.68-11.03l2.72,11.03c0,0,0.68-22.07,3.4-24.52c0,0-2.72,1.23-4.76,4.9c0,0,0-5.52,1.36-6.13s-2.72,1.84-3.4,6.13
			c-0.68,4.29-0.68-0.61-0.68-0.61l0.68-6.74c0,0-2.72,5.52-2.72,7.36l-0.68-6.74l-1.36,6.74c0,0-2.04-7.97-1.36-8.58
			c0.68-0.61-2.04,9.2-2.04,9.2s-1.36-6.74-0.68-6.74c0.68,0-2.04,6.13-2.04,6.13s-0.68-7.97,0-8.58c0.68-0.61-2.72,7.36-2.72,8.58
			c0,1.23-1.36-4.9-0.68-6.13c0.68-1.23-2.72,7.36-2.72,7.36v-7.97C187.43,85.28,182.68,88.35,182.68,92.03z"/>
		<g>
			
				<ellipse transform="matrix(0.9851 -0.1722 0.1722 0.9851 -19.4589 43.2553)" class="st5" cx="239.64" cy="133.81" rx="29.28" ry="69.9"/>
			<path class="st5" d="M243.85,71.85c-14.09-16.42-43.47-4.25-43.47-4.25c-15.76,4.44-23.84,34.83-17.44,72.9
				s23.56,64.2,40.61,64.95c0,0,29.02,1.02,34.77-6.05"/>
		</g>
	</g>
	<path class="st1" d="M334.82,357.28l-0.67,2.75c-1.52,6.23-8.36,10.17-15.26,8.8l-15.28-3.04c-6.91-1.37-11.27-7.54-9.75-13.77
		l0.67-2.75"/>
	<g>
		<polygon class="st6" points="305.96,372.28 303.82,365.83 318.67,368.79 313.73,373.82 311.07,377.7 306.99,377.7 		"/>
	</g>
	<polygon class="st7" points="351.04,352.44 327.87,360.28 301.63,355.71 283,340.69 281.55,311.95 365.51,326.32 	"/>
	<g>
		
			<linearGradient id="SVGID_1_" gradientUnits="userSpaceOnUse" x1="230.6874" y1="86.3922" x2="402.6472" y2="185.6732" gradientTransform="matrix(1 0 0 -0.1703 0 144.4115)">
			<stop  offset="0" style="stop-color:#FFFFFF"/>
			<stop  offset="0.5492" style="stop-color:#0085D5"/>
		</linearGradient>
		<path class="st8" d="M268.13,111.5c0.32-0.09,1.32-0.24,2.87-0.24l132.47,1.94c0.25,0,0.46,0.02,0.63,0.03l1.75,13.83
			c-0.89-0.15-1.86-0.3-2.56-0.3l-0.15,0l-161.53,6.16L268.13,111.5z"/>
		<path class="st9" d="M271,112.75l0.31,0l131.47,1.93l1.35,10.62c-0.29-0.03-0.57-0.04-0.83-0.04c-0.07,0-0.14,0-0.22,0
			l-157.02,5.99l22.73-18.36C269.19,112.83,269.96,112.75,271,112.75 M271,109.76c-1.76,0-3.31,0.19-3.68,0.47l-31.14,25.15
			c-0.07,0.05-0.07,0.08-0.02,0.08c0.35,0,3.06-0.95,5.27-1.02l161.75-6.17c0.03,0,0.07,0,0.1,0c1.12,0,3.45,0.53,4.11,0.53
			c0.11,0,0.18-0.02,0.18-0.05l-2.1-16.61c0-0.23-0.86-0.42-1.98-0.43l-132.14-1.94C271.24,109.76,271.12,109.76,271,109.76
			L271,109.76z"/>
	</g>
	<linearGradient id="SVGID_2_" gradientUnits="userSpaceOnUse" x1="281.968" y1="311.2198" x2="351.6184" y2="351.4326">
		<stop  offset="0" style="stop-color:#FFFFFF"/>
		<stop  offset="0.5492" style="stop-color:#0085D5"/>
	</linearGradient>
	<polygon class="st10" points="351.04,352.44 327.87,360.28 301.63,355.71 283,340.69 281.55,311.95 365.51,326.32 	"/>
	<polygon class="st6" points="284.57,234.05 287.34,242.71 381.79,246.28 384.72,225.57 	"/>
	<polygon class="st6" points="294.89,305.4 294.89,314.23 354.54,324.44 362.96,309.89 	"/>
	<g>
		<polygon class="st1" points="367.45,166.19 356.02,166.93 355.68,156.43 367.21,155.86 		"/>
		<polygon class="st1" points="378.52,165.48 367.45,166.19 367.21,155.86 378.38,155.3 		"/>
		<polygon class="st1" points="392.65,161.36 381.99,162 381.88,151.81 392.64,151.32 		"/>
		<polygon class="st1" points="378.78,185.32 367.91,186.33 367.68,176.35 378.65,175.49 		"/>
		<polygon class="st1" points="367.68,176.35 356.36,177.24 356.02,166.93 367.45,166.19 		"/>
		<polygon class="st1" points="389.29,174.65 378.65,175.49 378.52,165.48 389.25,164.79 		"/>
		<polygon class="st1" points="367.91,186.33 356.69,187.36 356.36,177.24 367.68,176.35 		"/>
		<polygon class="st1" points="389.33,184.35 378.78,185.32 378.65,175.49 389.29,174.65 		"/>
		<polygon class="st1" points="368.14,196.14 357.02,197.31 356.69,187.36 367.91,186.33 		"/>
		<polygon class="st1" points="389.37,193.88 378.91,194.99 378.78,185.32 389.33,184.35 		"/>
	</g>
	<g>
		<path class="st7" d="M402.88,127.22l-162.95,6.27c-1.86,0.07-3.21,1.56-2.83,3.14l22.98,96.6c0.31,1.31,1.71,2.2,3.25,2.08
			l139.97-11.32c1.56-0.13,2.75-1.25,2.75-2.6v-91.56C406.05,128.34,404.61,127.15,402.88,127.22z"/>
		<linearGradient id="SVGID_3_" gradientUnits="userSpaceOnUse" x1="241.2121" y1="128.2553" x2="405.4324" y2="223.0679">
			<stop  offset="0" style="stop-color:#FFFFFF"/>
			<stop  offset="0.5492" style="stop-color:#0085D5"/>
		</linearGradient>
		<path class="st11" d="M402.88,127.22l-162.95,6.27c-1.86,0.07-3.21,1.56-2.83,3.14l22.98,96.6c0.31,1.31,1.71,2.2,3.25,2.08
			l139.97-11.32c1.56-0.13,2.75-1.25,2.75-2.6v-91.56C406.05,128.34,404.61,127.15,402.88,127.22z"/>
		<path class="st12" d="M402.88,127.22l-162.95,6.27c-1.86,0.07-3.21,1.56-2.83,3.14l22.98,96.6c0.31,1.31,1.71,2.2,3.25,2.08
			l139.97-11.32c1.56-0.13,2.75-1.25,2.75-2.6v-91.56C406.05,128.34,404.61,127.15,402.88,127.22z"/>
	</g>
	<g>
		<polygon class="st7" points="399.53,246.87 275.04,242.71 285.17,304.76 384.33,311.29 		"/>
		<linearGradient id="SVGID_4_" gradientUnits="userSpaceOnUse" x1="277.5291" y1="238.3925" x2="389.1989" y2="302.8651">
			<stop  offset="0" style="stop-color:#FFFFFF"/>
			<stop  offset="0.5492" style="stop-color:#0085D5"/>
		</linearGradient>
		<polygon class="st13" points="399.53,246.87 275.04,242.71 285.17,304.76 384.33,311.29 		"/>
		<polygon class="st14" points="399.53,246.87 275.04,242.71 285.17,304.76 384.33,311.29 		"/>
	</g>
	<g>
		<g>
			<ellipse class="st15" cx="307.48" cy="383.89" rx="12.3" ry="11.1"/>
			<path class="st16" d="M315.25,389.13c-1.51,0.88-3.24,1.4-4.86,1.4c-5.2,0-8.23-3.7-8.83-7.97c0.58,4.1-0.2-0.49-0.23-1.43
				c-0.04-1.25,0.2-2.56,0.58-3.76c0.52-1.63,1.4-2.96,2.53-4.06c-4.06,1.15-7.35,4.17-8.34,8.2c-1.46,5.99,2.73,11.91,9.37,13.23
				c5.67,1.13,11.28-1.48,13.71-5.99C317.81,389.05,316.5,389.17,315.25,389.13z"/>
			<ellipse class="st1" cx="302.22" cy="389.09" rx="3.4" ry="2.45"/>
			<path class="st1" d="M314.05,379.54c0,0-2.04,1.84-0.68,4.29c1.36,2.45,1.85,4.56-0.43,6.57c0,0,3.83-1.67,3.83-5.96
				S316.77,380.16,314.05,379.54z"/>
		</g>
		<polygon class="st14" points="351.04,352.44 327.87,360.28 301.63,355.71 283,340.69 281.55,311.95 365.51,326.32 		"/>
		<g>
			<path class="st14" d="M334.82,357.28l-0.67,2.75c-1.52,6.23-8.36,10.17-15.26,8.8l-15.28-3.04c-6.91-1.37-11.27-7.54-9.75-13.77
				l0.67-2.75"/>
			<ellipse class="st14" cx="307.19" cy="383.89" rx="12.3" ry="11.1"/>
			<g>
				<line class="st14" x1="305.96" y1="372.28" x2="303.82" y2="365.83"/>
				<line class="st14" x1="313.73" y1="373.82" x2="318.67" y2="368.79"/>
			</g>
		</g>
	</g>
	<polygon class="st14" points="284.57,234.05 287.34,242.71 381.79,246.28 384.72,225.57 	"/>
	<polygon class="st14" points="294.89,305.4 294.89,314.23 354.54,324.44 362.96,309.89 	"/>
	<g>
		<path class="st1" d="M453.09,56h-35.47v0.02c-5.02,0.93-9.05,33.17-9.05,72.81s4.03,71.87,9.05,72.81v0.02h35.47"/>
		<path class="st3" d="M410.25,82.83c0,0-2.04,12.26-2.04,15.94l2.04-4.29c0,0-0.68,9.81,0,10.42s0.68-6.13,0.68-6.13
			s0,9.81,0.68,10.42c0.68,0.61,1.36-13.49,1.36-13.49l0.68,6.74l1.36-7.36l0.68,12.87l1.36-10.42l2.04,11.65l1.36-12.26l2.72,6.74
			l1.36-8.58v13.49l2.04-11.03l0.68,8.58l2.04-11.65l0.68,11.03l2.72-13.49l1.36,14.71l1.36-12.87l2.04,11.65l1.36-14.1l2.04,15.33
			l1.36-13.49l2.04,13.49l2.04-17.78l1.36,12.26l1.36-8.58l0.68,10.42l1.36-9.81l1.36,9.81l0.68-0.61V66.28c0,0-3.4,6.74-3.4,7.36
			s-0.68-9.81-0.68-9.81l-2.04,11.03l-1.36-9.81l-1.36,11.03l-1.36-12.26l-2.04,12.87l-2.72-10.42l-0.68,11.65l-2.04-12.87
			l-1.36,12.87l-0.68-7.36l-0.68,9.2l-0.68-13.49l-2.04,14.1l-1.36-12.26l-1.36,10.42l-1.36-11.65l-1.36,10.42l-1.36-10.42
			l-2.04,10.42l-1.36-9.2l-1.36,9.2l-1.36-11.65l-1.36,14.1l-2.04-13.49l-1.36,14.71l-0.68-12.26l-2.04,13.49"/>
		<path class="st3" d="M408.21,136.17c0,0,1.36,48.43,2.72,52.72l0.68-18.39l2.04,22.68l0.68-12.26c0,0,0,15.33,1.36,16.55
			s2.72-19,2.72-19l3.4,16.55l2.04-23.91l3.4,15.33l0.68-19.62l2.04,24.52l1.36-5.52l-0.68,7.97l2.72-8.58l1.36,8.58l1.36-11.65
			l2.72,11.03l0.68-12.26l2.72,11.65l0.68-14.1l2.04,13.49l2.04-19l2.72,17.78v-16.55l2.72,14.71l0.23-4.11l0.45-8.15l1.36,9.2
			l-0.68-66.21l-2.04,7.36l-1.36-8.58l-2.04,13.49l-1.36-11.65l-1.36,14.71l-2.72-12.26l-1.36,12.26l-2.04-12.26l-1.36,11.03
			l-2.04-9.81l-1.36,9.2l-2.04-7.97l-0.68,7.97l-1.36-11.03l-2.04,16.55l-1.36-13.49l-0.68,9.81l-2.04-9.81l-1.36,11.65l-2.04-10.42
			l-1.36,9.2l-2.04-10.42l-2.04,11.65l-2.04-11.03l-0.68,11.03l-2.8-10.93l-0.59,12.77L408.21,136.17z"/>
		<ellipse class="st17" cx="452.87" cy="128.83" rx="9.27" ry="72.83"/>
		<g>
			<ellipse class="st5" cx="452.87" cy="128.83" rx="9.27" ry="72.83"/>
			<path class="st18" d="M453.09,56h-35.47v0.02c-5.02,0.93-9.05,33.17-9.05,72.81s4.03,71.87,9.05,72.81v0.02h35.47"/>
			<g>
				<path class="st5" d="M465.2,165.57c-1.74,6.25-3.89,9.98-6.2,9.96c-5.45-0.04-7.1-21.07-6.86-46.86
					c0.23-25.79,2.26-46.59,7.71-46.54c2.37,0.02,4.51,4,6.16,10.61"/>
				<path class="st5" d="M472.99,129.14c-0.19,20.78-4.76,37.59-10.21,37.55c-5.45-0.04-5.69-16.98-5.5-37.76
					c0.19-20.78,0.73-37.52,6.18-37.48C468.92,91.48,473.18,108.36,472.99,129.14z"/>
			</g>
		</g>
		<path class="st19" d="M466.01,92.74c-1.64-6.61-3.78-10.59-6.16-10.61c-5.45-0.04-7.48,20.75-7.71,46.54
			c0,0-2.81,44.54,6.86,46.86c2.23,0.53,4.46-3.71,6.2-9.96"/>
		<path class="st5" d="M466.01,92.74c-1.64-6.61-3.78-10.59-6.16-10.61c-5.45-0.04-7.48,20.75-7.71,46.54c0,0-2.81,44.54,6.86,46.86
			c2.23,0.53,4.46-3.71,6.2-9.96"/>
		<path class="st15" d="M472.99,129.14c-0.19,20.78-4.76,37.59-10.21,37.55c-5.45-0.04-5.69-16.98-5.5-37.76
			c0.19-20.78,0.73-37.52,6.18-37.48C468.92,91.48,473.18,108.36,472.99,129.14z"/>
		<path class="st15" d="M465.82,153.23c-8.09-18.65-1.1-38.68-1.71-57.92c-0.04-1.22,0.28-2.38,0.86-3.42
			c-0.49-0.29-0.99-0.44-1.5-0.45c-5.45-0.04-6,16.7-6.18,37.48c-0.19,20.78,0.05,37.72,5.5,37.76c2.47,0.02,4.76-3.44,6.55-9.15
			C467.79,156.48,466.57,154.97,465.82,153.23z"/>
		<path class="st20" d="M472.99,129.14c-0.19,20.78-4.76,37.59-10.21,37.55c-5.45-0.04-5.69-16.98-5.5-37.76
			c0.19-20.78,0.73-37.52,6.18-37.48C468.92,91.48,473.18,108.36,472.99,129.14z"/>
		<path class="st18" d="M472.99,129.14c-0.19,20.78-4.76,37.59-10.21,37.55c-5.45-0.04-5.69-16.98-5.5-37.76
			c0.19-20.78,0.73-37.52,6.18-37.48C468.92,91.48,473.18,108.36,472.99,129.14z"/>
	</g>
	<g>
		<polygon class="st1" points="367.45,166.19 356.02,166.93 355.68,156.43 367.21,155.86 		"/>
		<polygon class="st1" points="378.52,165.48 367.45,166.19 367.21,155.86 378.38,155.3 		"/>
		<polygon class="st1" points="392.65,161.36 381.99,162 381.88,151.81 392.64,151.32 		"/>
		<polygon class="st1" points="378.78,185.32 367.91,186.33 367.68,176.35 378.65,175.49 		"/>
		<polygon class="st1" points="367.68,176.35 356.36,177.24 356.02,166.93 367.45,166.19 		"/>
		<polygon class="st1" points="389.29,174.65 378.65,175.49 378.52,165.48 389.25,164.79 		"/>
		<polygon class="st1" points="367.91,186.33 356.69,187.36 356.36,177.24 367.68,176.35 		"/>
		<polygon class="st1" points="389.33,184.35 378.78,185.32 378.65,175.49 389.29,174.65 		"/>
		<polygon class="st1" points="368.14,196.14 357.02,197.31 356.69,187.36 367.91,186.33 		"/>
		<polygon class="st1" points="389.37,193.88 378.91,194.99 378.78,185.32 389.33,184.35 		"/>
	</g>
</g>
<ellipse class="st1" cx="452.95" cy="104.97" rx="1.62" ry="3.23"/>
<path class="st1" d="M453.92,110.79c0,0-1.94,1.29-0.65,5.81s-0.65,16.8,1.29,16.15C456.51,132.11,457.8,113.37,453.92,110.79z"/>
<path class="st21" d="M438.33,200.36H100.67c-5.04,0-9.17,5.4-9.17,12v171c0,6.6,4.13,12,9.17,12h128.1l40.73,44.6l40.73-44.6h128.1
	c5.04,0,9.17-5.4,9.17-12v-171C447.5,205.76,443.37,200.36,438.33,200.36z"/>
<g>
	<g>
		<path class="st22" d="M190.82,161.68c0,0-8.54,19.6-11.96,20.41c-3.42,0.81-41.02,9.76-42.7,8.03
			c-1.68-1.72-10.1-11.19-10.09-12.05"/>
		<path class="st22" d="M185.53,158.72c0,0-8.24,18.93-11.47,19.71c-3.24,0.79-38.83,9.42-40.42,7.8
			c-1.58-1.62-9.5-10.54-9.48-11.34"/>
		<polyline class="st23" points="128.24,212.18 114.64,209.47 115.32,205.61 129.12,209.64 		"/>
		<polyline class="st23" points="122.13,224.9 111.51,221.79 111.96,219.67 123.43,222.78 		"/>
		<path class="st24" d="M118.28,232.62c0,0,16.91-32.29,16.94-34.85"/>
		<path class="st24" d="M128.87,194.72c0,0-0.37-4.69,3.51-8.48"/>
		<path class="st24" d="M130.39,183.65c0,0-6.07,4.74-4.25,10.45"/>
		<polygon class="st25" points="128.85,211.95 133.36,211.39 130.39,210.08 		"/>
		<polygon class="st25" points="156.23,223.58 160.93,222.36 157.54,220.62 		"/>
		<polygon class="st25" points="154.72,243.59 159.43,242.37 154.76,240.18 		"/>
		<polygon class="st23" points="122.74,224.66 127.25,224.1 123.43,222.78 		"/>
		<path class="st25" d="M142.04,197.85l17.92-2.35c0,0-0.92-6.98,2.38-9.63"/>
		<path class="st25" d="M153.96,187.66c0,0-3.97,3.56-1.79,8.87"/>
		<path class="st25" d="M150.12,188.04c0,0-3.97,3.56-1.79,8.87"/>
		<path class="st25" d="M150.46,259.07c0,0,2.86-3.99,2.89-7.4c0.04-3.41,5.75-55.33,6.61-56.17"/>
		<polyline class="st24" points="156.38,223.44 140.57,220.28 141.36,215.79 157.41,220.47 		"/>
		<polyline class="st23" points="188.64,216.37 169.59,220.5 168.2,216.26 188.29,212.63 		"/>
		<polyline class="st23" points="216.81,180.39 215.42,190.17 213.19,189.41 214.69,179.09 		"/>
		<polyline class="st23" points="215.42,190.17 207.65,198.61 205.42,197.84 213.3,188.87 		"/>
		<polyline class="st23" points="191.02,231.73 171.97,235.87 170.63,231.42 190.67,227.99 		"/>
		<polyline class="st24" points="153.6,243.2 139.31,239.02 139.91,236.16 153.91,240.17 		"/>
		<path class="st24" d="M178.34,191.03c0,0-0.87-7.24-2.08-8.32"/>
		<path class="st24" d="M173.3,192.58c0,0-2.58-5.9-1.7-8.45"/>
		<path class="st24" d="M184.47,176.61c0,0,8.52,0.1,11.86,6.1c0,0,33.95,12.32,33.5,14.45"/>
		<path class="st22" d="M201.58,170.84c0,0-2.66,9.34-5.25,11.87"/>
		<path class="st24" d="M200.12,175.28c0,0-4.1-9.41-13.06-5.57"/>
		<path class="st24" d="M198.5,178.9c0,0-3.81-9.21-12.76-5.37"/>
		<path class="st23" d="M185.67,183.01c0,0,5.96,0.07,6.79,2.63c0.82,2.57-4.01,3.19-6.47,0.9"/>
	</g>
	<g>
		<path class="st26" d="M164.62,185.63c0,0-5.71,64.83-6.14,65.25c-0.43,0.42-4.35,7.62-4.78,8.04c-0.43,0.42-14.06,0.26-15.73-3.16
			c-1.67-3.43,4.48-55.77,4.48-55.77c-2.93-4.72-0.61-10.1-0.61-10.1"/>
		<path class="st26" d="M185.17,189.4"/>
		<path class="st27" d="M126.08,178.07c0,0-3.85,1.23-4.27,0.8c-0.42-0.43-4.65-3.04-5.06-4.32c-0.41-1.28,0.96-5.94,1.87-10.19
			c0.9-4.25,4.71-7.74,6-9c1.29-1.26,6.28-9.32,8-11c1.72-1.68,36-9,41-9c0.85,0,10.16,6.14,11,7c0.84,0.86,7,2,9,3
			c2.22,1.11,6.74,6.71,8,8c1.26,1.29,0.47,11.1,0.03,12.37c-0.44,1.27-3.01,2.1-3.01,2.1s-10.12-9.49-14.38-9.54
			c-4.26-0.05-50.38,8.8-52.1,9.63c-1.71,0.83-8.17,6.3-7.76,7.58c0.41,1.28,2.1,3.01,2.1,3.01L126.08,178.07z"/>
		<path class="st22" d="M200.79,165.72c0,0-15.16-15.51-19-15.13c-3.84,0.38-49.53,8.81-51.67,10.06
			c-2.14,1.25-14.29,13.85-11.3,16.04"/>
		<path class="st28" d="M126.08,178.07c-0.01,0.85,8.4,10.32,10.09,12.05c1.68,1.72,39.28-7.22,42.7-8.03
			c3.42-0.81,11.96-20.41,11.96-20.41l-4.69-2.95"/>
		<path class="st28" d="M185.53,158.72c0,0-8.24,18.93-11.47,19.71c-3.24,0.79-38.83,9.42-40.42,7.8
			c-1.58-1.62-9.5-10.54-9.48-11.34c0,0,5.6-5.88,7.53-6.71c1.93-0.83,50.93-9.83,50.93-9.83S184.45,158.09,185.53,158.72z"/>
		<path class="st26" d="M126.08,178.07c0,0-9.04,7.99-6.55,13.99c0,0-12.37,38.21-9.82,39.09s10.63,2.25,11.92,0.99
			c1.29-1.26,4.74-4.63,6.04-6.75c1.3-2.12,13.55-29.25,13.55-29.25s-1.13-1.97,0.63-6.25l-4.88-0.11L126.08,178.07z"/>
		<path class="st26" d="M164.48,185.4c0,0-1.53,9.72,0.14,12.29c1.67,2.58,6.74,39.75,8.22,42.52c1.48,2.76,4.84,7.06,6.97,7.51
			c2.13,0.45,12.82-3.26,13.26-4.53c0.44-1.27-6.64-52.49-6.64-52.49s-0.32-8.95-3.69-12.4l-3.39,3.57L164.48,185.4z"/>
		<path class="st29" d="M188.48,166.79c8.64-4.23,13.09,4.9,13.09,4.9l0.43-0.42c0.41,1.28,25.82,15.21,27.09,15.65
			c1.27,0.44,2.47,7.7,1.59,10.24s-7.29,3.75-9.34,5.24c-2.05,1.48-29.38-10.37-29.38-10.37c-1.29,1.26-5.32,0.14-5.32,0.14
			l-3.67-14.88L188.48,166.79z"/>
		<path class="st30" d="M185.67,183.01c0,0,5.96,0.07,6.79,2.63c0.82,2.57-3.3,3.27-5.76,0.99"/>
		<path class="st25" d="M119.52,192.06l15.71,4.87c0,0-0.52-4.84,2.34-6.65"/>
		<polyline class="st30" points="128.24,212.18 114.64,209.47 115.32,205.61 129.12,209.64 		"/>
		<polyline class="st30" points="122.13,224.9 111.51,221.79 111.96,219.67 123.43,222.78 		"/>
		<path class="st24" d="M118.28,232.62c0,0,16.91-32.29,16.94-34.85"/>
		<path class="st31" d="M128.87,194.72c0,0-0.37-4.69,3.51-8.48"/>
		<path class="st31" d="M130.39,183.65c0,0-6.07,4.74-4.25,10.45"/>
		<polygon class="st25" points="128.85,211.95 133.36,211.39 130.39,210.08 		"/>
		<polygon class="st25" points="156.23,223.58 160.93,222.36 157.54,220.62 		"/>
		<polygon class="st25" points="154.72,243.59 159.43,242.37 154.76,240.18 		"/>
		<polygon class="st25" points="122.74,224.66 127.25,224.1 123.43,222.78 		"/>
		<path class="st25" d="M142.04,197.85l17.92-2.35c0,0-0.92-6.98,2.38-9.63"/>
		<path class="st32" d="M153.96,187.66c0,0-3.97,3.56-1.79,8.87"/>
		<path class="st32" d="M150.12,188.04c0,0-3.97,3.56-1.79,8.87"/>
		<path class="st25" d="M150.46,259.07c0,0,2.86-3.99,2.89-7.4c0.04-3.41,5.75-55.33,6.61-56.17"/>
		<polyline class="st33" points="156.38,223.44 140.57,220.28 141.36,215.79 157.41,220.47 		"/>
		<polyline class="st31" points="188.64,216.37 169.59,220.5 168.2,216.26 188.29,212.63 		"/>
		<polyline class="st31" points="216.81,180.39 215.42,190.17 213.19,189.41 214.69,179.09 		"/>
		<polyline class="st31" points="215.42,190.17 207.65,198.61 205.42,197.84 213.3,188.87 		"/>
		<polyline class="st31" points="191.02,231.73 171.97,235.87 170.63,231.42 190.67,227.99 		"/>
		<polyline class="st33" points="153.6,243.2 139.31,239.02 139.91,236.16 153.91,240.17 		"/>
		<path class="st31" d="M178.34,191.03c0,0-0.87-7.24-2.08-8.32"/>
		<path class="st31" d="M173.3,192.58c0,0-2.58-5.9-1.7-8.45"/>
		<path class="st24" d="M184.47,176.61c0,0,8.52,0.1,11.86,6.1c0,0,33.95,12.32,33.5,14.45"/>
		<path class="st22" d="M201.58,170.84c0,0-2.66,9.34-5.25,11.87"/>
		<path class="st31" d="M200.12,175.28c0,0-4.1-9.41-13.06-5.57"/>
		<path class="st31" d="M198.5,178.9c0,0-3.81-9.21-12.76-5.37"/>
		<polygon class="st34" points="202.29,173.88 213.26,180.47 212.71,182.34 200.46,178.27 		"/>
		<polygon class="st34" points="217.89,183.18 228.6,188.33 229.12,191.19 217.24,187.73 		"/>
		<polygon class="st34" points="184.22,191.68 174.63,194.31 180.08,212.86 187.25,211.55 		"/>
		<polygon class="st34" points="188.11,217.91 183.19,218.51 185.2,227.91 189.49,227.13 		"/>
		<polygon class="st34" points="190.54,232.86 186.24,233.64 188.87,243.22 191.11,242.52 		"/>
		<line class="st26" x1="185.17" y1="189.4" x2="164.22" y2="195.55"/>
		<polygon class="st34" points="158.43,196.38 155.39,197.52 146.62,215.99 155.99,218.73 		"/>
		<polygon class="st34" points="154.98,224.53 153.47,239.02 147.85,237.38 152.48,223.81 		"/>
		<path class="st34" d="M153.27,244.38l-0.93,7.87c0,0-1.27,4.38-2.08,4.82l-5.99-0.39l5.88-13.21L153.27,244.38z"/>
		<polygon class="st3" points="160.94,197.11 157.87,219.27 159.56,220.44 		"/>
		<polygon class="st3" points="157.66,224.64 155.35,239.56 157.85,240.29 		"/>
		<polygon class="st3" points="157.38,244.22 155.14,244.93 156.37,250.03 		"/>
		<polygon class="st34" points="134.19,198.13 129.03,208.84 123.41,207.2 131.24,196.59 		"/>
		<polygon class="st34" points="127.13,213.03 124.63,212.3 117.71,219.78 122.53,221.86 		"/>
		<polygon class="st34" points="120.81,225.43 118.93,224.89 112.74,229.86 118.54,230.88 		"/>
		<g>
			<path class="st15" d="M153.09,178.33l19.37-8.89l-18.53,2.81l23.42-8.33l-13.45,1.86l8.46-4.01
				c-17.85,3.31-38.27,7.19-40.06,7.79c-0.72,0.46-1.78,1.31-2.85,2.24c-0.9,0.82-1.88,1.77-2.78,2.67
				c-0.24,0.27-0.44,0.52-0.59,0.72c1.21,1.62,4.17,5.07,6.38,7.54l2.05,2.2c2.52,0.21,15.52-2.35,32.94-6.46l-3.95-0.78l13.64-5.37
				c0.07-0.11,0.13-0.24,0.2-0.35L153.09,178.33z"/>
			<path class="st15" d="M125.66,156.43l-0.24,0.24c-1.37,1.33-4.58,4.44-5.34,8c-0.25,1.19-0.54,2.4-0.82,3.57
				c-0.22,0.93-0.47,2-0.68,2.99c3.05-4.88,9.2-10.96,10.78-11.88c1.52-0.89,16.77-3.9,30.44-6.43l-6.78,0.45l17.07-7.14
				l-24.77,4.64l11.59-4.8l-14.72,2.1l21.23-5.95l-13.57,1.23l16.27-4.36l-18.53,2.81l1.61-0.54c-7.64,1.71-14.37,3.42-15.59,4.14
				c-0.85,0.87-2.74,3.64-4.26,5.88C127.49,154.08,126.33,155.77,125.66,156.43z"/>
			<path class="st15" d="M119.7,175.48c0,0,0.01,0.01,0.01,0.01C119.7,175.48,119.7,175.48,119.7,175.48L119.7,175.48z"/>
			<path class="st15" d="M161.92,184.43c0.01,0,0.03-0.01,0.04-0.01c0.65-0.14,1.31-0.29,1.97-0.44l14.24-3.38l-3.7-0.73
				c-0.02,0.01-0.05,0.02-0.07,0.02c-22.33,5.42-32.53,7.32-37.33,7.82l0.54,0.59l4.16,0.09
				C146.21,187.72,153.24,186.33,161.92,184.43z"/>
			<path class="st15" d="M130.82,161.97c-2.16,1.26-11.16,11.3-10.97,13.63c0.7,0.53,1.43,1.04,1.8,1.3
				c0.34,0.24,0.59,0.42,0.78,0.56c0.27-0.03,0.67-0.12,1.15-0.23c-0.25-0.41-0.47-0.85-0.61-1.27c-0.03-0.1-0.05-0.2-0.06-0.3
				c-0.17-0.33-0.26-0.6-0.26-0.78l0.01-0.59l0.4-0.42c0.25-0.26,0.77-0.8,1.43-1.46c0.85-0.99,1.94-2,3.01-2.89
				c1.36-1.23,2.72-2.33,3.59-2.7c0.01,0,0.03-0.01,0.04-0.02c0.19-0.12,0.32-0.2,0.37-0.23c1.38-0.67,15.74-3.52,29.17-5.97
				l3.3-1.39l-16.57,3.65l13.44-6.35l-18.42,3.45l7.06-2.01C140.04,159.77,131.96,161.45,130.82,161.97z"/>
		</g>
	</g>
</g>
<path class="st3" d="M165.59,192.79"/>
<g>
	<path class="st3" d="M525.2,302.26c0,0,1.03-29.73,0.37-31.02c-0.66-1.29-7.79-4.45-10.38-4.43c-2.58,0.02-6.46,0.06-8.43-3.16
		c-1.97-3.21-7.24-11.63-13.65-9.57l5.24,8.35c0,0,5.17-0.05,8.46,6.39s16.21,6.32,16.21,6.32L525.2,302.26z"/>
	<g>
		<path class="st35" d="M489.85,251.39c0,0,9.93,1.38,12.1,4.35c2.17,2.96,8.15,9.67,10.39,9.86c2.24,0.19,10.66,2.06,13.19,5.52
			s2.26,41.39,0.72,43.1c-1.54,1.72-15.01,6.35-16.19,8.57c-1.18,2.21-7.57,13.65-10.58,14.31"/>
		<line class="st24" x1="513.31" y1="314.77" x2="521.92" y2="310.93"/>
		<line class="st24" x1="511.5" y1="274.35" x2="521.63" y2="278.17"/>
	</g>
	<g>
		<g>
			<path class="st22" d="M489.85,251.39c0,0,9.93,1.38,12.1,4.35c2.17,2.96,8.15,9.67,10.39,9.86c2.24,0.19,10.66,2.06,13.19,5.52
				s2.26,41.39,0.72,43.1c-1.54,1.72-15.01,6.35-16.19,8.57c-1.18,2.21-7.57,13.65-10.58,14.31"/>
			<line class="st31" x1="513.31" y1="314.77" x2="521.92" y2="310.93"/>
			<line class="st31" x1="511.5" y1="274.35" x2="521.63" y2="278.17"/>
		</g>
		<path class="st15" d="M479.98,336.87c0,0-0.26,4.36,0.2,4.72c0.45,0.36,3.55,4.3,4.73,4.46c1.18,0.16,7.03-1.53,10.46-3.41
			c3.44-1.88,6.55-16.58,7.36-18.23c0.81-1.65,5.67-7.03,6.75-9.23c1.08-2.2-0.2-32.87-0.39-33.78c-0.18-0.9-3.1-3.94-4.01-4.65
			c-0.91-0.71-0.72-4.32-2.81-5.19c-2.09-0.87-11.98-20.97-13.34-22.04c-1.36-1.07-13.04,3.5-14.04,4.24
			c-0.99,0.74-1.17,3.65-1.17,3.65s10.18,8.72,11.11,13.25c0.92,4.52,2.91,55.53,2.55,57.54s-3.68,10.06-4.86,9.89
			c-1.18-0.16-3-1.58-3-1.58L479.98,336.87z"/>
		<path class="st20" d="M479.98,336.87c-0.72,0.19-10.54-6.72-12.36-8.14c-1.82-1.42-1.96-43.38-1.97-47.19
			c-0.01-3.81,14.93-17.14,14.93-17.14l6.46-2.83l9.86,19.3l-2.17,46.54l-8.28,13.64l-6.5-4.47"/>
		<path class="st22" d="M484.2,269.4c0,0-14.44,12.86-14.44,16.47c0,3.61-0.01,43.37,1.7,44.71c1.71,1.34,10.95,7.83,11.63,7.64"/>
		<path class="st17" d="M461.45,324.66c0,0-20.61,18.89-22.14,20.73c-1.54,1.84-3.7,6.24-4.51,7.89c-0.81,1.65,2.03,9.95,3.31,12.48
			c1.28,2.52,31.31-18.9,31.31-18.9c5.63,1.35,10.57-9.99,10.57-9.99L461.45,324.66"/>
		<path class="st17" d="M465.8,297.56c0,0-7.97,3.73-10.51,2.5c-2.54-1.23-35.29,1.41-37.96,0.43c-2.66-0.98-7.02-3.63-7.85-5.79
			c-0.82-2.17,0.13-14.35,1.13-15.1c0.99-0.74,46.13-4.26,46.13-4.26s7.7-1.59,11.34,1.25"/>
		<path class="st17" d="M476.71,268c1.82-10.11-6.89-12.87-6.89-12.87l0.27-0.55c-1.18-0.16-18.31-24.2-18.94-25.46
			c-0.64-1.26-7.08-0.97-9.06,0.52c-1.99,1.49-1.69,8.57-2.54,11.07c-0.84,2.51,14.91,29.03,14.91,29.03
			c-0.81,1.65,0.98,5.69,0.98,5.69"/>
		<polyline class="st17" points="450.44,341.93 455.57,355.82 458.72,354.26 452.43,340.44 		"/>
		<polyline class="st17" points="440.86,351.18 445.7,361.81 447.42,360.87 442.4,349.33 		"/>
		<path class="st24" d="M465.21,337.49c0,0,4.08-0.62,6.51-5.56"/>
		<path class="st24" d="M474.33,333.48c0,0-2.79,7.48-8.04,6.78"/>
		<polygon class="st25" points="450.52,341.23 450.06,336.3 451.79,339.18 		"/>
		<polygon class="st25" points="434.94,314.59 435.01,309.32 437.2,312.55 		"/>
		<polygon class="st25" points="418.18,320.52 418.26,315.25 421.08,319.74 		"/>
		<polygon class="st25" points="440.94,350.48 440.48,345.55 442.4,349.33 		"/>
		<path class="st25" d="M459.81,324.14l-1.7-19.59c0,0,6.14-0.53,7.72-4.61"/>
		<path class="st25" d="M466.04,309.25c0,0-2.22,4.99-7.19,3.82"/>
		<path class="st25" d="M466.51,313.42c0,0-2.22,4.99-7.19,3.82"/>
		<path class="st25" d="M405.86,328.4c0,0,2.81-3.9,5.71-4.68s46-18.07,46.54-19.17"/>
		<polyline class="st24" points="435.03,314.4 440.99,330.56 444.65,328.74 437.34,312.67 		"/>
		<polyline class="st17" points="434.4,278.54 434.8,299.7 438.71,300.27 437.66,278.1 		"/>
		<polyline class="st17" points="459.26,240.78 451.2,244.37 452.31,246.58 460.81,242.75 		"/>
		<polyline class="st17" points="451.2,244.37 445.61,254.46 446.72,256.67 452.75,246.34 		"/>
		<polyline class="st17" points="420.8,279.32 421.21,300.49 425.28,300.96 424.06,278.88 		"/>
		<polyline class="st24" points="418.75,321.63 425.27,335.94 427.58,334.68 421.27,320.64 		"/>
		<path class="st17" d="M458.11,276.4l-0.92,23.63c0,0-45.73,17.52-46,18.07c-0.27,0.55-5.6,6.27-5.87,6.82
			c-0.27,0.55,2.68,15.03,5.95,16.06c3.27,1.03,46.64-16.81,46.64-16.81c4.63,2.1,8.74-1.54,8.74-1.54l-0.03-27.07
			c0,0-1.45-15.85,1.65-17.59c3.09-1.74,8.04-8.18,8.04-8.18l-17.98-6.37L458.11,276.4z"/>
		<path class="st24" d="M457.85,289.72c0,0,5.57,1.48,7.55-0.01"/>
		<path class="st24" d="M469.16,274.39c0,0-1.84-9.05-7.65-11.31c0,0-17.52-33.48-19.24-32.54"/>
		<path class="st22" d="M470.55,254.93c0,0-7.42,4.85-9.04,8.15"/>
		<path class="st24" d="M467.06,257.44c0,0,8.87,2.34,7.45,12.7"/>
		<path class="st24" d="M464.31,259.94c0,0,8.64,2.06,7.21,12.42"/>
		<path class="st15" d="M509.8,296.43l-0.94-15.35l-3.92-4.49l-1.28-3.82l-2.65-1.96L489.2,249.6c0,0-6.8,0.44-14.34,5.16
			l-1.14,2.65l6.56,7.12l-4.8,4.79l0.98,1.06l-8.32,9.12c0,0-2.97,29.06-1.64,33.92l1.78-17.12l3.38,16.77l-2.18-27.12l5.35,20.63
			l0.48-18.74l4.09,24.52l0.53-13.57l3.34,12.25l-0.23-25.84l3.36,14.83l-0.68-16.96l3.89,14.34l-0.17-18.74l2.83,27.76l1.8-16.17
			l4.04,18.05l-0.22-25.2l2.69,12.25l0.51-14.86l2.13,21.95l1.17-13.58l1.44,16.79l0.48-18.74L509.8,296.43z"/>
		<polygon class="st36" points="437.9,365.7 445.45,363.01 443.02,356.26 		"/>
		<polygon class="st36" points="447.55,361.09 455.25,355.86 452.42,347.04 		"/>
		<path class="st25" d="M460.94,353.39"/>
		<polygon class="st36" points="461.94,352.03 469.71,347.01 461.17,330.93 		"/>
		<polygon class="st36" points="413.78,341.36 424.58,337.13 420.74,324.64 		"/>
		<polygon class="st36" points="432.34,334.35 439.75,330.9 436.61,320.1 		"/>
		<polygon class="st36" points="450.89,327.08 458.2,324.17 455.53,314.51 		"/>
		<polygon class="st36" points="410.67,295.96 417.29,300.63 420.19,300.27 420.76,288.76 417.91,297.39 		"/>
		<polygon class="st36" points="428.99,299.86 433.73,300.16 434.27,285.6 		"/>
		<polygon class="st36" points="452.72,266.48 439.38,240.99 440.59,234.09 		"/>
	</g>
	<path class="st19" d="M431,319.32"/>
	<g>
		<path class="st37" d="M479.98,336.87c0,0-0.26,4.36,0.2,4.72c0.45,0.36,3.55,4.3,4.73,4.46c1.18,0.16,7.03-1.53,10.46-3.41
			c3.44-1.88,6.55-16.58,7.36-18.23c0.81-1.65,5.67-7.03,6.75-9.23c1.08-2.2-0.2-32.87-0.39-33.78c-0.18-0.9-3.1-3.94-4.01-4.65
			c-0.91-0.71-0.72-4.32-2.81-5.19c-2.09-0.87-11.98-20.97-13.34-22.04c-1.36-1.07-13.04,3.5-14.04,4.24
			c-0.99,0.74-1.17,3.65-1.17,3.65s10.18,8.72,11.11,13.25c0.92,4.52,2.91,55.53,2.55,57.54s-3.68,10.06-4.86,9.89
			c-1.18-0.16-3-1.58-3-1.58L479.98,336.87z"/>
		<path class="st22" d="M475.08,254.67c0,0,16.36,12.79,16.83,16.96c0.47,4.17,2.72,54.63,2.1,57.18
			c-0.63,2.55-8.86,18.2-11.35,15.49"/>
		<path class="st22" d="M480.58,264.4c0,0-14.95,13.32-14.93,17.14c0.01,3.81,0.16,45.77,1.97,47.19
			c1.82,1.42,11.63,8.33,12.36,8.14"/>
		<path class="st22" d="M484.2,269.4c0,0-14.44,12.86-14.44,16.47c0,3.61-0.01,43.37,1.7,44.71c1.71,1.34,10.95,7.83,11.63,7.64"/>
		<path class="st22" d="M479.98,336.87c0,0-4.95,11.35-10.57,9.99c0,0-30.03,21.42-31.31,18.9c-1.28-2.52-4.12-10.83-3.31-12.48
			c0.81-1.65,2.97-6.05,4.51-7.89c1.54-1.84,22.14-20.73,22.14-20.73"/>
		<path class="st22" d="M465.8,297.56c0,0-7.97,3.73-10.51,2.5c-2.54-1.23-35.29,1.41-37.96,0.43c-2.66-0.98-7.02-3.63-7.85-5.79
			c-0.82-2.17,0.13-14.35,1.13-15.1c0.99-0.74,46.13-4.26,46.13-4.26s7.7-1.59,11.34,1.25"/>
		<path class="st37" d="M455.44,275.44c0,0-1.79-4.04-0.98-5.69c0,0-15.75-26.52-14.91-29.03c0.84-2.51,0.55-9.59,2.54-11.07
			c1.99-1.49,8.43-1.78,9.06-0.52c0.64,1.26,17.77,25.3,18.94,25.46l-0.27,0.55c0,0,8.71,2.76,6.89,12.87"/>
		<path class="st25" d="M469.41,346.86l-7.4-15.67c0,0,4.24-0.49,5.19-3.93"/>
		<polyline class="st24" points="450.44,341.93 455.57,355.82 458.72,354.26 452.43,340.44 		"/>
		<polyline class="st31" points="440.86,351.18 445.7,361.81 447.42,360.87 442.4,349.33 		"/>
		<path class="st24" d="M435.07,356.94c0,0,24.05-24.97,26.22-25.56"/>
		<path class="st31" d="M465.21,337.49c0,0,4.08-0.62,6.51-5.56"/>
		<path class="st31" d="M474.33,333.48c0,0-2.79,7.48-8.04,6.78"/>
		<polygon class="st32" points="450.52,341.23 450.06,336.3 451.79,339.18 		"/>
		<polygon class="st32" points="434.94,314.59 435.01,309.32 437.2,312.55 		"/>
		<polygon class="st32" points="418.18,320.52 418.26,315.25 421.08,319.74 		"/>
		<polygon class="st32" points="440.94,350.48 440.48,345.55 442.4,349.33 		"/>
		<path class="st25" d="M459.81,324.14l-1.7-19.59c0,0,6.14-0.53,7.72-4.61"/>
		<path class="st32" d="M466.04,309.25c0,0-2.22,4.99-7.19,3.82"/>
		<path class="st32" d="M466.51,313.42c0,0-2.22,4.99-7.19,3.82"/>
		<path class="st25" d="M405.86,328.4c0,0,2.81-3.9,5.71-4.68s46-18.07,46.54-19.17"/>
		<polyline class="st31" points="435.03,314.4 440.99,330.56 444.65,328.74 437.34,312.67 		"/>
		<polyline class="st31" points="434.4,278.54 434.8,299.7 438.71,300.27 437.66,278.1 		"/>
		<polyline class="st31" points="459.26,240.78 451.2,244.37 452.31,246.58 460.81,242.75 		"/>
		<polyline class="st31" points="451.2,244.37 445.61,254.46 446.72,256.67 452.75,246.34 		"/>
		<polyline class="st31" points="420.8,279.32 421.21,300.49 425.28,300.96 424.06,278.88 		"/>
		<polyline class="st31" points="418.75,321.63 425.27,335.94 427.58,334.68 421.27,320.64 		"/>
		<path class="st22" d="M458.11,276.4l-0.92,23.63c0,0-45.73,17.52-46,18.07c-0.27,0.55-5.6,6.27-5.87,6.82
			c-0.27,0.55,2.68,15.03,5.95,16.06c3.27,1.03,46.64-16.81,46.64-16.81c4.63,2.1,8.74-1.54,8.74-1.54"/>
		<path class="st31" d="M458.13,284.03c0,0,6.35-0.64,7.53,0.42"/>
		<path class="st31" d="M457.85,289.72c0,0,5.57,1.48,7.55-0.01"/>
		<path class="st24" d="M469.16,274.39c0,0-1.84-9.05-7.65-11.31c0,0-17.52-33.48-19.24-32.54"/>
		<path class="st22" d="M470.55,254.93c0,0-7.42,4.85-9.04,8.15"/>
		<path class="st31" d="M467.06,257.44c0,0,8.87,2.34,7.45,12.7"/>
		<path class="st31" d="M464.31,259.94c0,0,8.64,2.06,7.21,12.42"/>
		<path class="st24" d="M463.45,274.49c0,0-1.29-6.33-3.65-6.66s-1.89,4.96,0.57,7.08"/>
	</g>
</g>
<g>
	<rect x="225.11" y="301.86" class="st9" width="12" height="12"/>
	<rect x="267.11" y="301.86" class="st9" width="12" height="12"/>
	<rect x="309.11" y="301.86" class="st9" width="12" height="12"/>
</g>
<g>
	<rect x="51.63" y="461.63" class="st38" width="435.73" height="96.23"/>
	<path d="M81.32,461.79c0.11-0.11,0.24-0.16,0.39-0.16h5.38c0.15,0,0.28,0.05,0.39,0.16s0.16,0.24,0.16,0.39v31.1
		c0,0.15-0.05,0.28-0.16,0.39c-0.11,0.11-0.24,0.16-0.39,0.16h-5.2c-0.31,0-0.52-0.12-0.64-0.37l-11.91-19.69
		c-0.06-0.09-0.12-0.13-0.18-0.12s-0.09,0.08-0.09,0.21l0.09,19.41c0,0.15-0.05,0.28-0.16,0.39c-0.11,0.11-0.24,0.16-0.39,0.16
		h-5.38c-0.15,0-0.28-0.05-0.39-0.16c-0.11-0.11-0.16-0.24-0.16-0.39v-31.1c0-0.15,0.05-0.28,0.16-0.39s0.24-0.16,0.39-0.16h5.2
		c0.31,0,0.52,0.12,0.64,0.37l11.87,19.6c0.06,0.09,0.12,0.13,0.18,0.12c0.06-0.01,0.09-0.08,0.09-0.21l-0.05-19.32
		C81.16,462.03,81.21,461.9,81.32,461.79z"/>
	<path d="M96.66,492.18c-1.84-1.35-3.1-3.19-3.77-5.52c-0.43-1.44-0.64-3-0.64-4.69c0-1.81,0.21-3.43,0.64-4.88
		c0.71-2.27,1.98-4.05,3.82-5.34s4.05-1.93,6.62-1.93c2.51,0,4.66,0.64,6.44,1.91c1.78,1.27,3.04,3.04,3.77,5.31
		c0.49,1.53,0.74,3.14,0.74,4.83c0,1.66-0.21,3.21-0.64,4.65c-0.67,2.39-1.92,4.27-3.75,5.64s-4.02,2.05-6.6,2.05
		S98.5,493.53,96.66,492.18z M105.86,487.71c0.71-0.61,1.21-1.46,1.52-2.53c0.25-0.98,0.37-2.05,0.37-3.22
		c0-1.29-0.12-2.38-0.37-3.27c-0.34-1.04-0.86-1.86-1.56-2.44c-0.71-0.58-1.56-0.87-2.58-0.87c-1.04,0-1.91,0.29-2.6,0.87
		c-0.69,0.58-1.19,1.4-1.5,2.44c-0.25,0.74-0.37,1.82-0.37,3.27c0,1.38,0.11,2.45,0.32,3.22c0.31,1.07,0.82,1.92,1.54,2.53
		c0.72,0.61,1.6,0.92,2.64,0.92C104.29,488.63,105.15,488.33,105.86,487.71z"/>
	<path d="M145.92,472.08c1.5,1.5,2.25,3.54,2.25,6.12v15.09c0,0.15-0.05,0.28-0.16,0.39c-0.11,0.11-0.24,0.16-0.39,0.16h-5.38
		c-0.15,0-0.28-0.05-0.39-0.16c-0.11-0.11-0.16-0.24-0.16-0.39v-13.75c0-1.23-0.34-2.22-1.04-2.99c-0.69-0.77-1.6-1.15-2.74-1.15
		c-1.14,0-2.05,0.38-2.74,1.15c-0.69,0.77-1.04,1.76-1.04,2.99v13.75c0,0.15-0.05,0.28-0.16,0.39c-0.11,0.11-0.24,0.16-0.39,0.16
		h-5.38c-0.15,0-0.28-0.05-0.39-0.16c-0.11-0.11-0.16-0.24-0.16-0.39v-31.1c0-0.15,0.05-0.28,0.16-0.39s0.24-0.16,0.39-0.16h5.38
		c0.15,0,0.28,0.05,0.39,0.16s0.16,0.24,0.16,0.39v10.17c0,0.09,0.03,0.15,0.09,0.18s0.11,0.02,0.14-0.05
		c1.26-1.78,3.13-2.67,5.61-2.67C142.44,469.82,144.42,470.57,145.92,472.08z"/>
	<path d="M167.59,470.86c1.56,0.69,2.78,1.63,3.66,2.83c0.87,1.2,1.31,2.53,1.31,4v15.59c0,0.15-0.05,0.28-0.16,0.39
		c-0.11,0.11-0.24,0.16-0.39,0.16h-5.38c-0.15,0-0.28-0.05-0.39-0.16c-0.11-0.11-0.16-0.24-0.16-0.39v-1.52
		c0-0.09-0.03-0.15-0.09-0.18c-0.06-0.03-0.12,0-0.18,0.09c-1.29,1.69-3.36,2.53-6.21,2.53c-2.39,0-4.32-0.58-5.8-1.75
		c-1.47-1.17-2.21-2.88-2.21-5.15c0-2.36,0.83-4.19,2.48-5.5c1.66-1.3,4.02-1.96,7.08-1.96h4.69c0.15,0,0.23-0.08,0.23-0.23v-1.01
		c0-1.01-0.31-1.8-0.92-2.37s-1.53-0.85-2.76-0.85c-0.95,0-1.74,0.17-2.37,0.51c-0.63,0.34-1.04,0.81-1.22,1.43
		c-0.09,0.34-0.29,0.49-0.6,0.46l-5.57-0.74c-0.37-0.06-0.54-0.2-0.51-0.41c0.12-1.29,0.64-2.45,1.54-3.5
		c0.9-1.04,2.1-1.85,3.59-2.44c1.49-0.58,3.15-0.87,4.99-0.87C164.25,469.82,166.03,470.17,167.59,470.86z M164.69,488.31
		c0.92-0.71,1.38-1.61,1.38-2.71v-1.66c0-0.15-0.08-0.23-0.23-0.23h-3.31c-1.38,0-2.46,0.26-3.24,0.78
		c-0.78,0.52-1.17,1.26-1.17,2.21c0,0.83,0.29,1.48,0.87,1.96s1.36,0.71,2.35,0.71C162.65,489.37,163.77,489.02,164.69,488.31z"/>
	<path d="M181.16,493.28c-1.53-0.58-2.72-1.4-3.57-2.44c-0.84-1.04-1.26-2.22-1.26-3.54v-0.46c0-0.15,0.05-0.28,0.16-0.39
		c0.11-0.11,0.24-0.16,0.39-0.16h5.11c0.15,0,0.28,0.05,0.39,0.16c0.11,0.11,0.16,0.24,0.16,0.39v0.05c0,0.67,0.38,1.25,1.13,1.73
		c0.75,0.48,1.69,0.71,2.83,0.71c1.04,0,1.89-0.21,2.53-0.62c0.64-0.41,0.97-0.93,0.97-1.54c0-0.55-0.28-0.97-0.83-1.24
		c-0.55-0.28-1.46-0.57-2.71-0.87c-1.44-0.37-2.58-0.72-3.4-1.06c-1.96-0.67-3.53-1.5-4.69-2.48c-1.17-0.98-1.75-2.39-1.75-4.23
		c0-2.27,0.88-4.07,2.65-5.41c1.76-1.33,4.1-2,7.01-2c1.96,0,3.68,0.31,5.15,0.94c1.47,0.63,2.61,1.51,3.43,2.65
		c0.81,1.13,1.22,2.42,1.22,3.86c0,0.15-0.05,0.28-0.16,0.39s-0.24,0.16-0.39,0.16h-4.92c-0.15,0-0.28-0.05-0.39-0.16
		s-0.16-0.24-0.16-0.39c0-0.67-0.35-1.24-1.04-1.7c-0.69-0.46-1.6-0.69-2.74-0.69c-1.01,0-1.84,0.18-2.48,0.55
		c-0.64,0.37-0.97,0.87-0.97,1.52c0,0.61,0.31,1.07,0.94,1.38c0.63,0.31,1.68,0.63,3.15,0.97c0.34,0.09,0.72,0.19,1.15,0.3
		c0.43,0.11,0.89,0.24,1.38,0.39c2.18,0.64,3.89,1.47,5.15,2.48c1.26,1.01,1.89,2.48,1.89,4.42c0,2.27-0.9,4.04-2.69,5.31
		s-4.21,1.91-7.25,1.91C184.49,494.16,182.69,493.86,181.16,493.28z"/>
	<path d="M213.45,493.28c-1.53-0.58-2.72-1.4-3.57-2.44c-0.84-1.04-1.26-2.22-1.26-3.54v-0.46c0-0.15,0.05-0.28,0.16-0.39
		c0.11-0.11,0.24-0.16,0.39-0.16h5.11c0.15,0,0.28,0.05,0.39,0.16c0.11,0.11,0.16,0.24,0.16,0.39v0.05c0,0.67,0.38,1.25,1.13,1.73
		c0.75,0.48,1.69,0.71,2.83,0.71c1.04,0,1.89-0.21,2.53-0.62c0.64-0.41,0.97-0.93,0.97-1.54c0-0.55-0.28-0.97-0.83-1.24
		c-0.55-0.28-1.46-0.57-2.71-0.87c-1.44-0.37-2.58-0.72-3.4-1.06c-1.96-0.67-3.53-1.5-4.69-2.48c-1.17-0.98-1.75-2.39-1.75-4.23
		c0-2.27,0.88-4.07,2.65-5.41c1.76-1.33,4.1-2,7.01-2c1.96,0,3.68,0.31,5.15,0.94c1.47,0.63,2.61,1.51,3.43,2.65
		c0.81,1.13,1.22,2.42,1.22,3.86c0,0.15-0.05,0.28-0.16,0.39s-0.24,0.16-0.39,0.16h-4.92c-0.15,0-0.28-0.05-0.39-0.16
		s-0.16-0.24-0.16-0.39c0-0.67-0.35-1.24-1.04-1.7c-0.69-0.46-1.6-0.69-2.74-0.69c-1.01,0-1.84,0.18-2.48,0.55
		c-0.64,0.37-0.97,0.87-0.97,1.52c0,0.61,0.31,1.07,0.94,1.38c0.63,0.31,1.68,0.63,3.15,0.97c0.34,0.09,0.72,0.19,1.15,0.3
		c0.43,0.11,0.89,0.24,1.38,0.39c2.18,0.64,3.89,1.47,5.15,2.48c1.26,1.01,1.89,2.48,1.89,4.42c0,2.27-0.9,4.04-2.69,5.31
		s-4.21,1.91-7.25,1.91C216.78,494.16,214.98,493.86,213.45,493.28z"/>
	<path d="M253.61,483.48c-0.03,0.37-0.23,0.55-0.6,0.55H238.8c-0.18,0-0.25,0.08-0.18,0.23c0.09,0.61,0.26,1.23,0.51,1.84
		c0.8,1.72,2.42,2.58,4.88,2.58c1.96-0.03,3.51-0.83,4.65-2.39c0.12-0.18,0.26-0.28,0.41-0.28c0.09,0,0.2,0.06,0.32,0.18l3.31,3.27
		c0.15,0.15,0.23,0.29,0.23,0.41c0,0.06-0.06,0.18-0.18,0.37c-1.01,1.26-2.32,2.23-3.91,2.92s-3.34,1.04-5.24,1.04
		c-2.64,0-4.87-0.6-6.69-1.79c-1.83-1.2-3.14-2.87-3.93-5.01c-0.64-1.53-0.97-3.54-0.97-6.03c0-1.69,0.23-3.17,0.69-4.46
		c0.71-2.18,1.94-3.91,3.7-5.2c1.76-1.29,3.86-1.93,6.28-1.93c3.07,0,5.53,0.89,7.38,2.67c1.85,1.78,2.98,4.16,3.38,7.13
		C253.61,480.74,253.67,482.04,253.61,483.48z M238.89,478.1c-0.12,0.4-0.23,0.89-0.32,1.47c0,0.15,0.08,0.23,0.23,0.23h7.96
		c0.18,0,0.25-0.08,0.18-0.23c-0.15-0.89-0.23-1.32-0.23-1.29c-0.28-0.92-0.76-1.63-1.45-2.14c-0.69-0.51-1.54-0.76-2.55-0.76
		C240.78,475.39,239.5,476.29,238.89,478.1z"/>
	<path d="M257.77,493.67c-0.11-0.11-0.16-0.24-0.16-0.39v-31.1c0-0.15,0.05-0.28,0.16-0.39s0.24-0.16,0.39-0.16h5.38
		c0.15,0,0.28,0.05,0.39,0.16s0.16,0.24,0.16,0.39v31.1c0,0.15-0.05,0.28-0.16,0.39c-0.11,0.11-0.24,0.16-0.39,0.16h-5.38
		C258.01,493.83,257.88,493.78,257.77,493.67z"/>
	<path d="M289.95,483.48c-0.03,0.37-0.23,0.55-0.6,0.55h-14.21c-0.18,0-0.25,0.08-0.18,0.23c0.09,0.61,0.26,1.23,0.51,1.84
		c0.8,1.72,2.42,2.58,4.88,2.58c1.96-0.03,3.51-0.83,4.65-2.39c0.12-0.18,0.26-0.28,0.41-0.28c0.09,0,0.2,0.06,0.32,0.18l3.31,3.27
		c0.15,0.15,0.23,0.29,0.23,0.41c0,0.06-0.06,0.18-0.18,0.37c-1.01,1.26-2.32,2.23-3.91,2.92s-3.34,1.04-5.24,1.04
		c-2.64,0-4.87-0.6-6.69-1.79c-1.83-1.2-3.14-2.87-3.93-5.01c-0.64-1.53-0.97-3.54-0.97-6.03c0-1.69,0.23-3.17,0.69-4.46
		c0.71-2.18,1.94-3.91,3.7-5.2c1.76-1.29,3.86-1.93,6.28-1.93c3.07,0,5.53,0.89,7.38,2.67c1.85,1.78,2.98,4.16,3.38,7.13
		C289.95,480.74,290.01,482.04,289.95,483.48z M275.23,478.1c-0.12,0.4-0.23,0.89-0.32,1.47c0,0.15,0.08,0.23,0.23,0.23h7.96
		c0.18,0,0.25-0.08,0.18-0.23c-0.15-0.89-0.23-1.32-0.23-1.29c-0.28-0.92-0.76-1.63-1.45-2.14c-0.69-0.51-1.54-0.76-2.55-0.76
		C277.11,475.39,275.84,476.29,275.23,478.1z"/>
	<path d="M297.97,492.36c-1.79-1.23-3.08-2.91-3.84-5.06c-0.52-1.53-0.78-3.34-0.78-5.43c0-2.05,0.26-3.83,0.78-5.34
		c0.74-2.08,2.01-3.73,3.82-4.92c1.81-1.2,3.94-1.79,6.39-1.79c2.45,0,4.61,0.61,6.46,1.84s3.09,2.78,3.7,4.65
		c0.25,0.74,0.37,1.29,0.37,1.66v0.09c0,0.28-0.15,0.45-0.46,0.51l-5.29,0.78h-0.09c-0.28,0-0.46-0.15-0.55-0.46l-0.14-0.74
		c-0.21-0.8-0.69-1.46-1.43-1.98c-0.74-0.52-1.61-0.78-2.62-0.78c-0.98,0-1.81,0.25-2.48,0.74c-0.67,0.49-1.15,1.17-1.43,2.02
		c-0.34,0.92-0.51,2.18-0.51,3.77c0,1.59,0.15,2.85,0.46,3.77c0.28,0.92,0.76,1.64,1.45,2.16c0.69,0.52,1.52,0.78,2.51,0.78
		c0.95,0,1.79-0.25,2.51-0.76c0.72-0.51,1.22-1.2,1.5-2.09c0.03-0.06,0.05-0.15,0.05-0.28c0.03-0.03,0.05-0.08,0.05-0.14
		c0.03-0.37,0.25-0.52,0.64-0.46l5.29,0.83c0.31,0.06,0.46,0.23,0.46,0.51c0,0.25-0.09,0.71-0.28,1.38
		c-0.64,2.05-1.89,3.67-3.75,4.83c-1.86,1.17-4,1.75-6.42,1.75C301.89,494.2,299.77,493.59,297.97,492.36z"/>
	<path d="M322.4,492.36c-1.79-1.23-3.08-2.91-3.84-5.06c-0.52-1.53-0.78-3.34-0.78-5.43c0-2.05,0.26-3.83,0.78-5.34
		c0.74-2.08,2.01-3.73,3.82-4.92c1.81-1.2,3.94-1.79,6.39-1.79c2.45,0,4.61,0.61,6.46,1.84s3.09,2.78,3.7,4.65
		c0.25,0.74,0.37,1.29,0.37,1.66v0.09c0,0.28-0.15,0.45-0.46,0.51l-5.29,0.78h-0.09c-0.28,0-0.46-0.15-0.55-0.46l-0.14-0.74
		c-0.21-0.8-0.69-1.46-1.43-1.98c-0.74-0.52-1.61-0.78-2.62-0.78c-0.98,0-1.81,0.25-2.48,0.74c-0.67,0.49-1.15,1.17-1.43,2.02
		c-0.34,0.92-0.51,2.18-0.51,3.77c0,1.59,0.15,2.85,0.46,3.77c0.28,0.92,0.76,1.64,1.45,2.16c0.69,0.52,1.52,0.78,2.51,0.78
		c0.95,0,1.79-0.25,2.51-0.76c0.72-0.51,1.22-1.2,1.5-2.09c0.03-0.06,0.05-0.15,0.05-0.28c0.03-0.03,0.05-0.08,0.05-0.14
		c0.03-0.37,0.25-0.52,0.64-0.46l5.29,0.83c0.31,0.06,0.46,0.23,0.46,0.51c0,0.25-0.09,0.71-0.28,1.38
		c-0.64,2.05-1.89,3.67-3.75,4.83c-1.86,1.17-4,1.75-6.42,1.75C326.32,494.2,324.19,493.59,322.4,492.36z"/>
	<path d="M343.97,466.49c-0.69-0.69-1.04-1.56-1.04-2.6c0-1.07,0.34-1.95,1.01-2.62c0.67-0.67,1.55-1.01,2.62-1.01
		s1.95,0.34,2.62,1.01c0.67,0.67,1.01,1.55,1.01,2.62c0,1.04-0.35,1.91-1.04,2.6c-0.69,0.69-1.56,1.04-2.6,1.04
		S344.66,467.18,343.97,466.49z M343.42,493.67c-0.11-0.11-0.16-0.24-0.16-0.39V470.7c0-0.15,0.05-0.28,0.16-0.39
		c0.11-0.11,0.24-0.16,0.39-0.16h5.38c0.15,0,0.28,0.05,0.39,0.16c0.11,0.11,0.16,0.24,0.16,0.39v22.59c0,0.15-0.05,0.28-0.16,0.39
		c-0.11,0.11-0.24,0.16-0.39,0.16h-5.38C343.66,493.83,343.53,493.78,343.42,493.67z"/>
	<path d="M358.62,492.18c-1.84-1.35-3.1-3.19-3.77-5.52c-0.43-1.44-0.64-3-0.64-4.69c0-1.81,0.21-3.43,0.64-4.88
		c0.71-2.27,1.98-4.05,3.82-5.34s4.05-1.93,6.62-1.93c2.51,0,4.66,0.64,6.44,1.91c1.78,1.27,3.04,3.04,3.77,5.31
		c0.49,1.53,0.74,3.14,0.74,4.83c0,1.66-0.21,3.21-0.64,4.65c-0.67,2.39-1.92,4.27-3.75,5.64s-4.02,2.05-6.6,2.05
		S360.46,493.53,358.62,492.18z M367.82,487.71c0.71-0.61,1.21-1.46,1.52-2.53c0.25-0.98,0.37-2.05,0.37-3.22
		c0-1.29-0.12-2.38-0.37-3.27c-0.34-1.04-0.86-1.86-1.56-2.44c-0.71-0.58-1.56-0.87-2.58-0.87c-1.04,0-1.91,0.29-2.6,0.87
		c-0.69,0.58-1.19,1.4-1.5,2.44c-0.25,0.74-0.37,1.82-0.37,3.27c0,1.38,0.11,2.45,0.32,3.22c0.31,1.07,0.82,1.92,1.54,2.53
		c0.72,0.61,1.6,0.92,2.64,0.92C366.26,488.63,367.12,488.33,367.82,487.71z"/>
	<path d="M398.69,472.08c1.5,1.5,2.25,3.54,2.25,6.12v15.09c0,0.15-0.05,0.28-0.16,0.39c-0.11,0.11-0.24,0.16-0.39,0.16h-5.38
		c-0.15,0-0.28-0.05-0.39-0.16c-0.11-0.11-0.16-0.24-0.16-0.39v-13.75c0-1.23-0.34-2.22-1.04-2.99c-0.69-0.77-1.6-1.15-2.74-1.15
		c-1.14,0-2.05,0.38-2.74,1.15c-0.69,0.77-1.04,1.76-1.04,2.99v13.75c0,0.15-0.05,0.28-0.16,0.39c-0.11,0.11-0.24,0.16-0.39,0.16
		h-5.38c-0.15,0-0.28-0.05-0.39-0.16c-0.11-0.11-0.16-0.24-0.16-0.39v-22.54c0-0.15,0.05-0.28,0.16-0.39
		c0.11-0.11,0.24-0.16,0.39-0.16h5.38c0.15,0,0.28,0.05,0.39,0.16c0.11,0.11,0.16,0.24,0.16,0.39v1.61c0,0.09,0.03,0.15,0.09,0.18
		s0.11,0.02,0.14-0.05c1.26-1.78,3.13-2.67,5.61-2.67C395.21,469.82,397.19,470.57,398.69,472.08z"/>
	<path d="M420.36,470.86c1.56,0.69,2.78,1.63,3.66,2.83c0.87,1.2,1.31,2.53,1.31,4v15.59c0,0.15-0.05,0.28-0.16,0.39
		c-0.11,0.11-0.24,0.16-0.39,0.16h-5.38c-0.15,0-0.28-0.05-0.39-0.16c-0.11-0.11-0.16-0.24-0.16-0.39v-1.52
		c0-0.09-0.03-0.15-0.09-0.18c-0.06-0.03-0.12,0-0.18,0.09c-1.29,1.69-3.36,2.53-6.21,2.53c-2.39,0-4.32-0.58-5.8-1.75
		c-1.47-1.17-2.21-2.88-2.21-5.15c0-2.36,0.83-4.19,2.48-5.5c1.66-1.3,4.02-1.96,7.08-1.96h4.69c0.15,0,0.23-0.08,0.23-0.23v-1.01
		c0-1.01-0.31-1.8-0.92-2.37s-1.53-0.85-2.76-0.85c-0.95,0-1.74,0.17-2.37,0.51c-0.63,0.34-1.04,0.81-1.22,1.43
		c-0.09,0.34-0.29,0.49-0.6,0.46l-5.57-0.74c-0.37-0.06-0.54-0.2-0.51-0.41c0.12-1.29,0.64-2.45,1.54-3.5
		c0.9-1.04,2.1-1.85,3.59-2.44c1.49-0.58,3.15-0.87,4.99-0.87C417.01,469.82,418.79,470.17,420.36,470.86z M417.46,488.31
		c0.92-0.71,1.38-1.61,1.38-2.71v-1.66c0-0.15-0.08-0.23-0.23-0.23h-3.31c-1.38,0-2.46,0.26-3.24,0.78
		c-0.78,0.52-1.17,1.26-1.17,2.21c0,0.83,0.29,1.48,0.87,1.96s1.36,0.71,2.35,0.71C415.42,489.37,416.54,489.02,417.46,488.31z"/>
	<path d="M444.71,461.79c0.11-0.11,0.24-0.16,0.39-0.16h5.38c0.15,0,0.28,0.05,0.39,0.16s0.16,0.24,0.16,0.39v31.1
		c0,0.15-0.05,0.28-0.16,0.39c-0.11,0.11-0.24,0.16-0.39,0.16h-5.38c-0.15,0-0.28-0.05-0.39-0.16c-0.11-0.11-0.16-0.24-0.16-0.39
		v-1.52c0-0.09-0.03-0.14-0.09-0.16c-0.06-0.01-0.12,0.01-0.18,0.07c-1.29,1.69-3.05,2.53-5.29,2.53c-2.15,0-4-0.6-5.54-1.79
		c-1.55-1.2-2.66-2.84-3.33-4.92c-0.52-1.59-0.78-3.45-0.78-5.57c0-2.18,0.28-4.08,0.83-5.7c0.71-1.96,1.82-3.52,3.33-4.67
		c1.52-1.15,3.4-1.72,5.63-1.72c2.21,0,3.93,0.77,5.15,2.3c0.06,0.09,0.12,0.12,0.18,0.09c0.06-0.03,0.09-0.09,0.09-0.18v-9.84
		C444.55,462.03,444.61,461.9,444.71,461.79z M444.51,482.01c0-2.05-0.34-3.66-1.01-4.83c-0.71-1.2-1.73-1.79-3.08-1.79
		c-1.44,0-2.53,0.6-3.27,1.79c-0.77,1.2-1.15,2.82-1.15,4.88c0,1.84,0.32,3.37,0.97,4.6c0.77,1.32,1.9,1.98,3.4,1.98
		c1.38,0,2.45-0.66,3.22-1.98C444.2,485.52,444.51,483.97,444.51,482.01z"/>
	<path d="M459.73,492.18c-1.84-1.35-3.1-3.19-3.77-5.52c-0.43-1.44-0.64-3-0.64-4.69c0-1.81,0.21-3.43,0.64-4.88
		c0.71-2.27,1.98-4.05,3.82-5.34s4.05-1.93,6.62-1.93c2.51,0,4.66,0.64,6.44,1.91c1.78,1.27,3.04,3.04,3.77,5.31
		c0.49,1.53,0.74,3.14,0.74,4.83c0,1.66-0.21,3.21-0.64,4.65c-0.67,2.39-1.92,4.27-3.75,5.64s-4.02,2.05-6.6,2.05
		S461.57,493.53,459.73,492.18z M468.93,487.71c0.71-0.61,1.21-1.46,1.52-2.53c0.25-0.98,0.37-2.05,0.37-3.22
		c0-1.29-0.12-2.38-0.37-3.27c-0.34-1.04-0.86-1.86-1.56-2.44c-0.71-0.58-1.56-0.87-2.58-0.87c-1.04,0-1.91,0.29-2.6,0.87
		c-0.69,0.58-1.19,1.4-1.5,2.44c-0.25,0.74-0.37,1.82-0.37,3.27c0,1.38,0.11,2.45,0.32,3.22c0.31,1.07,0.82,1.92,1.54,2.53
		c0.72,0.61,1.6,0.92,2.64,0.92C467.37,488.63,468.23,488.33,468.93,487.71z"/>
	<path d="M86.47,529.08c1.5,1.5,2.25,3.54,2.25,6.12v15.09c0,0.15-0.05,0.28-0.16,0.39c-0.11,0.11-0.24,0.16-0.39,0.16h-5.38
		c-0.15,0-0.28-0.05-0.39-0.16c-0.11-0.11-0.16-0.24-0.16-0.39v-13.75c0-1.23-0.34-2.22-1.04-2.99c-0.69-0.77-1.6-1.15-2.74-1.15
		c-1.14,0-2.05,0.38-2.74,1.15c-0.69,0.77-1.04,1.76-1.04,2.99v13.75c0,0.15-0.05,0.28-0.16,0.39c-0.11,0.11-0.24,0.16-0.39,0.16
		h-5.38c-0.15,0-0.28-0.05-0.39-0.16c-0.11-0.11-0.16-0.24-0.16-0.39v-22.54c0-0.15,0.05-0.28,0.16-0.39
		c0.11-0.11,0.24-0.16,0.39-0.16h5.38c0.15,0,0.28,0.05,0.39,0.16c0.11,0.11,0.16,0.24,0.16,0.39v1.61c0,0.09,0.03,0.15,0.09,0.18
		s0.11,0.02,0.14-0.05c1.26-1.78,3.13-2.67,5.61-2.67C82.99,526.82,84.97,527.57,86.47,529.08z"/>
	<path d="M94.27,523.49c-0.69-0.69-1.04-1.56-1.04-2.6c0-1.07,0.34-1.95,1.01-2.62c0.67-0.67,1.55-1.01,2.62-1.01
		s1.95,0.34,2.62,1.01c0.67,0.67,1.01,1.55,1.01,2.62c0,1.04-0.35,1.91-1.04,2.6c-0.69,0.69-1.56,1.04-2.6,1.04
		S94.96,524.18,94.27,523.49z M93.71,550.67c-0.11-0.11-0.16-0.24-0.16-0.39V527.7c0-0.15,0.05-0.28,0.16-0.39
		c0.11-0.11,0.24-0.16,0.39-0.16h5.38c0.15,0,0.28,0.05,0.39,0.16c0.11,0.11,0.16,0.24,0.16,0.39v22.59c0,0.15-0.05,0.28-0.16,0.39
		c-0.11,0.11-0.24,0.16-0.39,0.16H94.1C93.95,550.83,93.82,550.78,93.71,550.67z"/>
	<path d="M123.36,529.08c1.5,1.5,2.25,3.54,2.25,6.12v15.09c0,0.15-0.05,0.28-0.16,0.39c-0.11,0.11-0.24,0.16-0.39,0.16h-5.38
		c-0.15,0-0.28-0.05-0.39-0.16c-0.11-0.11-0.16-0.24-0.16-0.39v-13.75c0-1.23-0.34-2.22-1.04-2.99c-0.69-0.77-1.6-1.15-2.74-1.15
		c-1.14,0-2.05,0.38-2.74,1.15c-0.69,0.77-1.04,1.76-1.04,2.99v13.75c0,0.15-0.05,0.28-0.16,0.39c-0.11,0.11-0.24,0.16-0.39,0.16
		h-5.38c-0.15,0-0.28-0.05-0.39-0.16c-0.11-0.11-0.16-0.24-0.16-0.39v-22.54c0-0.15,0.05-0.28,0.16-0.39
		c0.11-0.11,0.24-0.16,0.39-0.16h5.38c0.15,0,0.28,0.05,0.39,0.16c0.11,0.11,0.16,0.24,0.16,0.39v1.61c0,0.09,0.03,0.15,0.09,0.18
		s0.11,0.02,0.14-0.05c1.26-1.78,3.13-2.67,5.61-2.67C119.88,526.82,121.86,527.57,123.36,529.08z"/>
	<path d="M144.87,527.35c0.11-0.11,0.24-0.16,0.39-0.16h5.38c0.15,0,0.28,0.05,0.39,0.16c0.11,0.11,0.16,0.24,0.16,0.39v20.98
		c0,4.02-1.16,6.88-3.47,8.6c-2.32,1.72-5.3,2.58-8.95,2.58c-1.07,0-2.27-0.08-3.59-0.23c-0.31-0.03-0.46-0.23-0.46-0.6l0.18-4.74
		c0-0.4,0.21-0.57,0.64-0.51c1.1,0.18,2.12,0.28,3.04,0.28c1.96,0,3.47-0.43,4.53-1.29s1.59-2.24,1.59-4.14
		c0-0.09-0.03-0.15-0.09-0.16c-0.06-0.01-0.12,0.01-0.18,0.07c-1.17,1.26-2.87,1.89-5.11,1.89c-1.99,0-3.83-0.48-5.5-1.45
		c-1.67-0.97-2.86-2.52-3.57-4.67c-0.46-1.41-0.69-3.23-0.69-5.47c0-2.39,0.28-4.34,0.83-5.84c0.64-1.87,1.73-3.37,3.27-4.51
		c1.53-1.13,3.31-1.7,5.34-1.7c2.36,0,4.17,0.71,5.43,2.12c0.06,0.06,0.12,0.08,0.18,0.07c0.06-0.01,0.09-0.07,0.09-0.16v-1.1
		C144.7,527.59,144.76,527.46,144.87,527.35z M144.7,538.83c0-0.95-0.03-1.69-0.09-2.21c-0.06-0.52-0.17-1.01-0.32-1.47
		c-0.28-0.83-0.74-1.5-1.38-2c-0.64-0.51-1.44-0.76-2.39-0.76c-0.92,0-1.7,0.25-2.35,0.76c-0.64,0.51-1.12,1.17-1.43,2
		c-0.43,0.92-0.64,2.16-0.64,3.73c0,1.72,0.18,2.94,0.55,3.68c0.28,0.83,0.76,1.5,1.45,2c0.69,0.51,1.51,0.76,2.46,0.76
		c0.98,0,1.79-0.25,2.44-0.76c0.64-0.51,1.09-1.16,1.33-1.96C144.58,541.68,144.7,540.42,144.7,538.83z"/>
	<path d="M169.8,527.35c0.11-0.11,0.24-0.16,0.39-0.16h5.38c0.15,0,0.28,0.05,0.39,0.16c0.11,0.11,0.16,0.24,0.16,0.39v22.54
		c0,0.15-0.05,0.28-0.16,0.39c-0.11,0.11-0.24,0.16-0.39,0.16h-5.38c-0.15,0-0.28-0.05-0.39-0.16c-0.11-0.11-0.16-0.24-0.16-0.39
		v-1.56c0-0.09-0.03-0.14-0.09-0.16c-0.06-0.01-0.12,0.02-0.18,0.12c-1.23,1.66-3.13,2.48-5.7,2.48c-2.33,0-4.25-0.71-5.75-2.12
		c-1.5-1.41-2.25-3.39-2.25-5.93v-15.36c0-0.15,0.05-0.28,0.16-0.39c0.11-0.11,0.24-0.16,0.39-0.16h5.34c0.15,0,0.28,0.05,0.39,0.16
		c0.11,0.11,0.16,0.24,0.16,0.39v13.75c0,1.23,0.33,2.22,0.99,2.99s1.57,1.15,2.74,1.15c1.04,0,1.9-0.31,2.58-0.94
		c0.67-0.63,1.09-1.45,1.24-2.46v-14.49C169.64,527.59,169.69,527.46,169.8,527.35z"/>
	<path d="M199.17,529.08c1.5,1.5,2.25,3.54,2.25,6.12v15.09c0,0.15-0.05,0.28-0.16,0.39c-0.11,0.11-0.24,0.16-0.39,0.16h-5.38
		c-0.15,0-0.28-0.05-0.39-0.16c-0.11-0.11-0.16-0.24-0.16-0.39v-13.75c0-1.23-0.34-2.22-1.04-2.99c-0.69-0.77-1.6-1.15-2.74-1.15
		c-1.14,0-2.05,0.38-2.74,1.15c-0.69,0.77-1.04,1.76-1.04,2.99v13.75c0,0.15-0.05,0.28-0.16,0.39c-0.11,0.11-0.24,0.16-0.39,0.16
		h-5.38c-0.15,0-0.28-0.05-0.39-0.16c-0.11-0.11-0.16-0.24-0.16-0.39v-22.54c0-0.15,0.05-0.28,0.16-0.39
		c0.11-0.11,0.24-0.16,0.39-0.16h5.38c0.15,0,0.28,0.05,0.39,0.16c0.11,0.11,0.16,0.24,0.16,0.39v1.61c0,0.09,0.03,0.15,0.09,0.18
		s0.11,0.02,0.14-0.05c1.26-1.78,3.13-2.67,5.61-2.67C195.69,526.82,197.67,527.57,199.17,529.08z"/>
	<path d="M220.83,527.86c1.56,0.69,2.78,1.63,3.66,2.83c0.87,1.2,1.31,2.53,1.31,4v15.59c0,0.15-0.05,0.28-0.16,0.39
		c-0.11,0.11-0.24,0.16-0.39,0.16h-5.38c-0.15,0-0.28-0.05-0.39-0.16c-0.11-0.11-0.16-0.24-0.16-0.39v-1.52
		c0-0.09-0.03-0.15-0.09-0.18c-0.06-0.03-0.12,0-0.18,0.09c-1.29,1.69-3.36,2.53-6.21,2.53c-2.39,0-4.32-0.58-5.8-1.75
		c-1.47-1.17-2.21-2.88-2.21-5.15c0-2.36,0.83-4.19,2.48-5.5c1.66-1.3,4.02-1.96,7.08-1.96h4.69c0.15,0,0.23-0.08,0.23-0.23v-1.01
		c0-1.01-0.31-1.8-0.92-2.37s-1.53-0.85-2.76-0.85c-0.95,0-1.74,0.17-2.37,0.51c-0.63,0.34-1.04,0.81-1.22,1.43
		c-0.09,0.34-0.29,0.49-0.6,0.46l-5.57-0.74c-0.37-0.06-0.54-0.2-0.51-0.41c0.12-1.29,0.64-2.45,1.54-3.5
		c0.9-1.04,2.1-1.85,3.59-2.44c1.49-0.58,3.15-0.87,4.99-0.87C217.49,526.82,219.27,527.17,220.83,527.86z M217.94,545.31
		c0.92-0.71,1.38-1.61,1.38-2.71v-1.66c0-0.15-0.08-0.23-0.23-0.23h-3.31c-1.38,0-2.46,0.26-3.24,0.78
		c-0.78,0.52-1.17,1.26-1.17,2.21c0,0.83,0.29,1.48,0.87,1.96s1.36,0.71,2.35,0.71C215.9,546.37,217.02,546.02,217.94,545.31z"/>
	<path d="M261.5,539.06c0,2.12-0.29,4.03-0.87,5.75c-0.71,1.96-1.82,3.52-3.33,4.67c-1.52,1.15-3.4,1.73-5.63,1.73
		c-2.21,0-3.93-0.77-5.15-2.3c-0.06-0.09-0.12-0.12-0.18-0.09c-0.06,0.03-0.09,0.09-0.09,0.18v9.84c0,0.15-0.05,0.28-0.16,0.39
		c-0.11,0.11-0.24,0.16-0.39,0.16h-5.38c-0.15,0-0.28-0.05-0.39-0.16c-0.11-0.11-0.16-0.24-0.16-0.39v-31.1
		c0-0.15,0.05-0.28,0.16-0.39c0.11-0.11,0.24-0.16,0.39-0.16h5.38c0.15,0,0.28,0.05,0.39,0.16c0.11,0.11,0.16,0.24,0.16,0.39v1.52
		c0,0.09,0.03,0.15,0.09,0.16c0.06,0.02,0.12-0.01,0.18-0.07c1.29-1.69,3.07-2.53,5.34-2.53c2.12,0,3.95,0.59,5.5,1.77
		c1.55,1.18,2.66,2.83,3.33,4.95C261.22,535.1,261.5,536.94,261.5,539.06z M254.78,538.96c0-1.93-0.32-3.46-0.97-4.6
		c-0.71-1.32-1.84-1.98-3.4-1.98c-1.41,0-2.47,0.66-3.17,1.98c-0.64,1.1-0.97,2.65-0.97,4.65c0,2.05,0.34,3.65,1.01,4.78
		c0.71,1.23,1.75,1.84,3.13,1.84s2.45-0.6,3.22-1.79S254.78,541.02,254.78,538.96z"/>
	<path d="M279.65,527.35c0.11-0.11,0.24-0.16,0.39-0.16h5.38c0.15,0,0.28,0.05,0.39,0.16c0.11,0.11,0.16,0.24,0.16,0.39v22.54
		c0,0.15-0.05,0.28-0.16,0.39c-0.11,0.11-0.24,0.16-0.39,0.16h-5.38c-0.15,0-0.28-0.05-0.39-0.16c-0.11-0.11-0.16-0.24-0.16-0.39
		v-1.56c0-0.09-0.03-0.14-0.09-0.16c-0.06-0.01-0.12,0.02-0.18,0.12c-1.23,1.66-3.13,2.48-5.7,2.48c-2.33,0-4.25-0.71-5.75-2.12
		c-1.5-1.41-2.25-3.39-2.25-5.93v-15.36c0-0.15,0.05-0.28,0.16-0.39c0.11-0.11,0.24-0.16,0.39-0.16h5.34c0.15,0,0.28,0.05,0.39,0.16
		c0.11,0.11,0.16,0.24,0.16,0.39v13.75c0,1.23,0.33,2.22,0.99,2.99s1.57,1.15,2.74,1.15c1.04,0,1.9-0.31,2.58-0.94
		c0.67-0.63,1.09-1.45,1.24-2.46v-14.49C279.49,527.59,279.54,527.46,279.65,527.35z"/>
	<path d="M312.56,538.92c0,2.12-0.26,3.97-0.78,5.57c-0.71,2.09-1.83,3.73-3.38,4.92c-1.55,1.2-3.38,1.79-5.5,1.79
		c-2.24,0-4-0.84-5.29-2.53c-0.06-0.06-0.12-0.08-0.18-0.07c-0.06,0.02-0.09,0.07-0.09,0.16v1.52c0,0.15-0.05,0.28-0.16,0.39
		c-0.11,0.11-0.24,0.16-0.39,0.16h-5.38c-0.15,0-0.28-0.05-0.39-0.16c-0.11-0.11-0.16-0.24-0.16-0.39v-31.1
		c0-0.15,0.05-0.28,0.16-0.39s0.24-0.16,0.39-0.16h5.38c0.15,0,0.28,0.05,0.39,0.16s0.16,0.24,0.16,0.39v9.84
		c0,0.09,0.03,0.15,0.09,0.18c0.06,0.03,0.12,0,0.18-0.09c1.2-1.53,2.9-2.3,5.11-2.3c2.24,0,4.12,0.58,5.64,1.72
		c1.52,1.15,2.63,2.71,3.33,4.67C312.27,534.81,312.56,536.71,312.56,538.92z M305.84,539.06c0-2.12-0.37-3.74-1.1-4.88
		c-0.74-1.2-1.83-1.79-3.27-1.79c-1.35,0-2.38,0.6-3.08,1.79c-0.67,1.17-1.01,2.78-1.01,4.83c0,2.05,0.31,3.6,0.92,4.65
		c0.74,1.32,1.81,1.98,3.22,1.98c1.5,0,2.62-0.66,3.36-1.98C305.52,542.49,305.84,540.96,305.84,539.06z"/>
	<path d="M316.95,550.67c-0.11-0.11-0.16-0.24-0.16-0.39v-31.1c0-0.15,0.05-0.28,0.16-0.39s0.24-0.16,0.39-0.16h5.38
		c0.15,0,0.28,0.05,0.39,0.16s0.16,0.24,0.16,0.39v31.1c0,0.15-0.05,0.28-0.16,0.39c-0.11,0.11-0.24,0.16-0.39,0.16h-5.38
		C317.19,550.83,317.06,550.78,316.95,550.67z"/>
	<path d="M328.91,523.49c-0.69-0.69-1.04-1.56-1.04-2.6c0-1.07,0.34-1.95,1.01-2.62c0.67-0.67,1.55-1.01,2.62-1.01
		s1.95,0.34,2.62,1.01c0.67,0.67,1.01,1.55,1.01,2.62c0,1.04-0.35,1.91-1.04,2.6c-0.69,0.69-1.56,1.04-2.6,1.04
		S329.6,524.18,328.91,523.49z M328.36,550.67c-0.11-0.11-0.16-0.24-0.16-0.39V527.7c0-0.15,0.05-0.28,0.16-0.39
		c0.11-0.11,0.24-0.16,0.39-0.16h5.38c0.15,0,0.28,0.05,0.39,0.16c0.11,0.11,0.16,0.24,0.16,0.39v22.59c0,0.15-0.05,0.28-0.16,0.39
		c-0.11,0.11-0.24,0.16-0.39,0.16h-5.38C328.6,550.83,328.47,550.78,328.36,550.67z"/>
	<path d="M343.77,549.36c-1.79-1.23-3.08-2.91-3.84-5.06c-0.52-1.53-0.78-3.34-0.78-5.43c0-2.05,0.26-3.83,0.78-5.34
		c0.74-2.08,2.01-3.73,3.82-4.92c1.81-1.2,3.94-1.79,6.39-1.79c2.45,0,4.61,0.61,6.46,1.84s3.09,2.78,3.7,4.65
		c0.25,0.74,0.37,1.29,0.37,1.66v0.09c0,0.28-0.15,0.45-0.46,0.51l-5.29,0.78h-0.09c-0.28,0-0.46-0.15-0.55-0.46l-0.14-0.74
		c-0.21-0.8-0.69-1.46-1.43-1.98c-0.74-0.52-1.61-0.78-2.62-0.78c-0.98,0-1.81,0.25-2.48,0.74c-0.67,0.49-1.15,1.17-1.43,2.02
		c-0.34,0.92-0.51,2.18-0.51,3.77c0,1.59,0.15,2.85,0.46,3.77c0.28,0.92,0.76,1.64,1.45,2.16c0.69,0.52,1.52,0.78,2.51,0.78
		c0.95,0,1.79-0.25,2.51-0.76c0.72-0.51,1.22-1.2,1.5-2.09c0.03-0.06,0.05-0.15,0.05-0.28c0.03-0.03,0.05-0.08,0.05-0.14
		c0.03-0.37,0.25-0.52,0.64-0.46l5.29,0.83c0.31,0.06,0.46,0.23,0.46,0.51c0,0.25-0.09,0.71-0.28,1.38
		c-0.64,2.05-1.89,3.67-3.75,4.83c-1.86,1.17-4,1.75-6.42,1.75C347.69,551.2,345.56,550.59,343.77,549.36z"/>
	<path d="M379.21,527.86c1.56,0.69,2.78,1.63,3.66,2.83c0.87,1.2,1.31,2.53,1.31,4v15.59c0,0.15-0.05,0.28-0.16,0.39
		c-0.11,0.11-0.24,0.16-0.39,0.16h-5.38c-0.15,0-0.28-0.05-0.39-0.16c-0.11-0.11-0.16-0.24-0.16-0.39v-1.52
		c0-0.09-0.03-0.15-0.09-0.18c-0.06-0.03-0.12,0-0.18,0.09c-1.29,1.69-3.36,2.53-6.21,2.53c-2.39,0-4.32-0.58-5.8-1.75
		c-1.47-1.17-2.21-2.88-2.21-5.15c0-2.36,0.83-4.19,2.48-5.5c1.66-1.3,4.02-1.96,7.08-1.96h4.69c0.15,0,0.23-0.08,0.23-0.23v-1.01
		c0-1.01-0.31-1.8-0.92-2.37s-1.53-0.85-2.76-0.85c-0.95,0-1.74,0.17-2.37,0.51c-0.63,0.34-1.04,0.81-1.22,1.43
		c-0.09,0.34-0.29,0.49-0.6,0.46l-5.57-0.74c-0.37-0.06-0.54-0.2-0.51-0.41c0.12-1.29,0.64-2.45,1.54-3.5
		c0.9-1.04,2.1-1.85,3.59-2.44c1.49-0.58,3.15-0.87,4.99-0.87C375.87,526.82,377.65,527.17,379.21,527.86z M376.31,545.31
		c0.92-0.71,1.38-1.61,1.38-2.71v-1.66c0-0.15-0.08-0.23-0.23-0.23h-3.31c-1.38,0-2.46,0.26-3.24,0.78
		c-0.78,0.52-1.17,1.26-1.17,2.21c0,0.83,0.29,1.48,0.87,1.96s1.36,0.71,2.35,0.71C374.27,546.37,375.39,546.02,376.31,545.31z"/>
	<path d="M392.76,549.36c-1.79-1.23-3.08-2.91-3.84-5.06c-0.52-1.53-0.78-3.34-0.78-5.43c0-2.05,0.26-3.83,0.78-5.34
		c0.74-2.08,2.01-3.73,3.82-4.92c1.81-1.2,3.94-1.79,6.39-1.79c2.45,0,4.61,0.61,6.46,1.84s3.09,2.78,3.7,4.65
		c0.25,0.74,0.37,1.29,0.37,1.66v0.09c0,0.28-0.15,0.45-0.46,0.51l-5.29,0.78h-0.09c-0.28,0-0.46-0.15-0.55-0.46l-0.14-0.74
		c-0.21-0.8-0.69-1.46-1.43-1.98c-0.74-0.52-1.61-0.78-2.62-0.78c-0.98,0-1.81,0.25-2.48,0.74c-0.67,0.49-1.15,1.17-1.43,2.02
		c-0.34,0.92-0.51,2.18-0.51,3.77c0,1.59,0.15,2.85,0.46,3.77c0.28,0.92,0.76,1.64,1.45,2.16c0.69,0.52,1.52,0.78,2.51,0.78
		c0.95,0,1.79-0.25,2.51-0.76c0.72-0.51,1.22-1.2,1.5-2.09c0.03-0.06,0.05-0.15,0.05-0.28c0.03-0.03,0.05-0.08,0.05-0.14
		c0.03-0.37,0.25-0.52,0.64-0.46l5.29,0.83c0.31,0.06,0.46,0.23,0.46,0.51c0,0.25-0.09,0.71-0.28,1.38
		c-0.64,2.05-1.89,3.67-3.75,4.83c-1.86,1.17-4,1.75-6.42,1.75C396.68,551.2,394.55,550.59,392.76,549.36z"/>
	<path d="M414.33,523.49c-0.69-0.69-1.04-1.56-1.04-2.6c0-1.07,0.34-1.95,1.01-2.62c0.67-0.67,1.55-1.01,2.62-1.01
		s1.95,0.34,2.62,1.01c0.67,0.67,1.01,1.55,1.01,2.62c0,1.04-0.35,1.91-1.04,2.6c-0.69,0.69-1.56,1.04-2.6,1.04
		S415.02,524.18,414.33,523.49z M413.78,550.67c-0.11-0.11-0.16-0.24-0.16-0.39V527.7c0-0.15,0.05-0.28,0.16-0.39
		c0.11-0.11,0.24-0.16,0.39-0.16h5.38c0.15,0,0.28,0.05,0.39,0.16c0.11,0.11,0.16,0.24,0.16,0.39v22.59c0,0.15-0.05,0.28-0.16,0.39
		c-0.11,0.11-0.24,0.16-0.39,0.16h-5.38C414.02,550.83,413.89,550.78,413.78,550.67z"/>
	<path d="M428.98,549.18c-1.84-1.35-3.1-3.19-3.77-5.52c-0.43-1.44-0.64-3-0.64-4.69c0-1.81,0.21-3.43,0.64-4.88
		c0.71-2.27,1.98-4.05,3.82-5.34s4.05-1.93,6.62-1.93c2.51,0,4.66,0.64,6.44,1.91c1.78,1.27,3.04,3.04,3.77,5.31
		c0.49,1.53,0.74,3.14,0.74,4.83c0,1.66-0.21,3.21-0.64,4.65c-0.67,2.39-1.92,4.27-3.75,5.64s-4.02,2.05-6.6,2.05
		S430.82,550.53,428.98,549.18z M438.18,544.71c0.71-0.61,1.21-1.46,1.52-2.53c0.25-0.98,0.37-2.05,0.37-3.22
		c0-1.29-0.12-2.38-0.37-3.27c-0.34-1.04-0.86-1.86-1.56-2.44c-0.71-0.58-1.56-0.87-2.58-0.87c-1.04,0-1.91,0.29-2.6,0.87
		c-0.69,0.58-1.19,1.4-1.5,2.44c-0.25,0.74-0.37,1.82-0.37,3.27c0,1.38,0.11,2.45,0.32,3.22c0.31,1.07,0.82,1.92,1.54,2.53
		c0.72,0.61,1.6,0.92,2.64,0.92C436.62,545.63,437.48,545.33,438.18,544.71z M432.43,524.15c-0.06-0.12-0.05-0.28,0.05-0.46
		l2.44-4.65c0.12-0.28,0.35-0.41,0.69-0.41h4.65c0.21,0,0.36,0.07,0.44,0.21c0.08,0.14,0.05,0.3-0.07,0.48l-3.27,4.65
		c-0.15,0.25-0.37,0.37-0.64,0.37h-3.86C432.63,524.34,432.49,524.28,432.43,524.15z"/>
	<path d="M468.68,529.08c1.5,1.5,2.25,3.54,2.25,6.12v15.09c0,0.15-0.05,0.28-0.16,0.39c-0.11,0.11-0.24,0.16-0.39,0.16H465
		c-0.15,0-0.28-0.05-0.39-0.16c-0.11-0.11-0.16-0.24-0.16-0.39v-13.75c0-1.23-0.34-2.22-1.04-2.99c-0.69-0.77-1.6-1.15-2.74-1.15
		c-1.14,0-2.05,0.38-2.74,1.15c-0.69,0.77-1.04,1.76-1.04,2.99v13.75c0,0.15-0.05,0.28-0.16,0.39c-0.11,0.11-0.24,0.16-0.39,0.16
		h-5.38c-0.15,0-0.28-0.05-0.39-0.16c-0.11-0.11-0.16-0.24-0.16-0.39v-22.54c0-0.15,0.05-0.28,0.16-0.39
		c0.11-0.11,0.24-0.16,0.39-0.16h5.38c0.15,0,0.28,0.05,0.39,0.16c0.11,0.11,0.16,0.24,0.16,0.39v1.61c0,0.09,0.03,0.15,0.09,0.18
		s0.11,0.02,0.14-0.05c1.26-1.78,3.13-2.67,5.61-2.67C465.2,526.82,467.18,527.57,468.68,529.08z"/>
</g>
<g>
	<g class="st39">
		<g>
			<g>
				<polygon class="st40" points="368.39,61.62 367.11,73.46 365.47,71.46 365.41,54.75 366.25,48.79 367.31,47.47 				"/>
				<polygon class="st9" points="367.31,47.47 366.25,48.79 365.41,54.75 365.47,71.46 367.11,73.46 368.39,61.62 367.31,47.47 				
					"/>
			</g>
		</g>
		<g>
			<polygon class="st41" points="370.36,61.98 368.09,61.62 367.01,47.47 369.18,47.84 			"/>
		</g>
		<g>
			<polygon class="st9" points="369.07,73.8 366.81,73.46 368.09,61.62 370.36,61.98 			"/>
		</g>
		<g>
			<polygon class="st9" points="371.26,53.07 368.98,52.71 373.12,40.85 375.53,41.24 			"/>
		</g>
		<g>
			<g>
				<polygon class="st40" points="370.29,43.1 372.62,32.7 371.94,40.53 370.16,45.64 				"/>
				<polygon class="st9" points="372.38,26.91 368.8,42.89 368.45,49.81 369.28,52.71 373.42,40.85 374.58,27.39 372.38,26.91 				
					"/>
			</g>
		</g>
		<g>
			<polygon class="st41" points="375.53,41.24 373.12,40.85 374.28,27.39 376.69,27.79 			"/>
		</g>
		<g>
			<polygon class="st9" points="374.03,82.03 371.54,81.67 373.11,67.55 375.62,67.92 			"/>
		</g>
		<g>
			<polygon class="st41" points="375.62,67.92 373.11,67.55 371.34,50.26 373.7,50.64 			"/>
		</g>
		<g>
			<g>
				<polygon class="st40" points="370.67,58.71 370.86,57.42 371.9,67.54 370.98,75.82 				"/>
				<polygon class="st9" points="371.64,50.26 370.21,51.69 369.17,58.61 369.53,78.67 371.84,81.67 373.41,67.55 371.64,50.26 				
					"/>
			</g>
		</g>
		<g>
			<g>
				<polygon class="st40" points="375.11,45.18 379.52,27.57 380.06,27.65 378.8,42.52 374.81,52.19 				"/>
				<polygon class="st9" points="378.4,25.88 373.61,44.96 373.26,53.23 374.5,56.87 380.27,42.88 381.67,26.37 378.4,25.88 				"/>
			</g>
		</g>
		<g>
			<polygon class="st41" points="382.68,43.3 379.97,42.88 381.38,26.37 384.08,26.81 			"/>
		</g>
		<g>
			<polygon class="st9" points="376.71,57.25 374.2,56.87 379.97,42.88 382.68,43.3 			"/>
		</g>
		<g>
			<polygon class="st41" points="383.49,76.81 380.63,76.42 377.55,54.28 380.2,54.68 			"/>
		</g>
		<g>
			<g>
				<polygon class="st40" points="376.89,88.59 375.96,64.15 376.91,58.37 379.42,76.44 377.85,89.92 				"/>
				<polygon class="st9" points="377.85,54.28 375.81,55.8 374.45,64.05 375.41,89.1 378.89,93.94 380.93,76.42 377.85,54.28 				
					"/>
			</g>
		</g>
		<g>
			<polygon class="st9" points="381.43,94.31 378.6,93.94 380.63,76.42 383.49,76.81 			"/>
		</g>
		<g>
			<polygon class="st41" points="394.01,46.57 390.83,46.11 392.6,24.77 395.77,25.25 			"/>
		</g>
		<g>
			<polygon class="st9" points="384.89,63.51 382.02,63.11 390.83,46.11 394.01,46.57 			"/>
		</g>
		<g>
			<g>
				<polygon class="st40" points="381.85,57.99 382.16,48.22 388.64,25.92 391.28,26.14 389.66,45.69 382.48,59.54 				"/>
				<path class="st9" d="M389.63,27.88l-1.44,17.38l-4.73,9.12l0.19-5.92L389.63,27.88 M387.54,24.32l-6.87,23.66l-0.33,10.27
					l1.98,4.84l8.81-17l1.77-21.34L387.54,24.32L387.54,24.32z"/>
			</g>
		</g>
		<g>
			<polygon class="st41" points="399.56,84.01 396.03,83.57 393.35,59.61 396.68,60.07 			"/>
		</g>
		<g>
			<g>
				<polygon class="st40" points="385.83,81.09 385.55,69.73 387.66,61.6 392.32,61.23 394.78,83.22 389.89,91.1 				"/>
				<path class="st9" d="M390.99,62.84l2.24,20.04l-3.06,4.93l-2.85-7.03l-0.27-10.87l1.79-6.9L390.99,62.84 M393.65,59.61
					l-7.17,0.57l-2.43,9.37l0.29,11.84l5.27,13.01l6.72-10.83L393.65,59.61L393.65,59.61z"/>
			</g>
		</g>
		<g>
			<polygon class="st9" points="392.6,94.81 389.31,94.4 396.03,83.57 399.56,84.01 			"/>
		</g>
	</g>
	<g class="st39">
		<g>
			<g>
				<polygon class="st40" points="270.55,55.62 271.83,67.46 273.47,65.46 273.53,48.75 272.68,42.79 271.63,41.47 				"/>
				<polygon class="st9" points="271.63,41.47 270.55,55.62 271.83,67.46 273.47,65.46 273.53,48.75 272.68,42.79 271.63,41.47 				
					"/>
			</g>
		</g>
		<g>
			<polygon class="st41" points="268.58,55.98 270.85,55.62 271.92,41.47 269.75,41.84 			"/>
		</g>
		<g>
			<polygon class="st9" points="269.87,67.8 272.13,67.46 270.85,55.62 268.58,55.98 			"/>
		</g>
		<g>
			<polygon class="st9" points="267.68,47.07 269.95,46.71 265.81,34.85 263.41,35.24 			"/>
		</g>
		<g>
			<g>
				<polygon class="st40" points="266.99,34.53 266.32,26.7 268.65,37.1 268.78,39.64 				"/>
				<polygon class="st9" points="266.56,20.91 264.35,21.39 265.52,34.85 269.66,46.71 270.49,43.81 270.14,36.89 266.56,20.91 				
					"/>
			</g>
		</g>
		<g>
			<polygon class="st41" points="263.41,35.24 265.81,34.85 264.65,21.39 262.25,21.79 			"/>
		</g>
		<g>
			<polygon class="st9" points="264.91,76.03 267.4,75.67 265.82,61.55 263.32,61.92 			"/>
		</g>
		<g>
			<polygon class="st41" points="263.32,61.92 265.82,61.55 267.6,44.26 265.23,44.64 			"/>
		</g>
		<g>
			<g>
				<polygon class="st40" points="267.03,61.54 268.07,51.42 268.27,52.71 267.96,69.82 				"/>
				<polygon class="st9" points="267.3,44.26 265.53,61.55 267.1,75.67 269.4,72.67 269.77,52.61 268.73,45.69 267.3,44.26 				"/>
			</g>
		</g>
		<g>
			<g>
				<polygon class="st40" points="260.14,36.52 258.88,21.65 259.41,21.57 263.83,39.18 264.13,46.19 				"/>
				<polygon class="st9" points="260.54,19.88 257.26,20.37 258.66,36.88 264.44,50.87 265.68,47.23 265.32,38.96 260.54,19.88 				
					"/>
			</g>
		</g>
		<g>
			<polygon class="st41" points="256.26,37.3 258.96,36.88 257.56,20.37 254.86,20.81 			"/>
		</g>
		<g>
			<polygon class="st9" points="262.23,51.25 264.74,50.87 258.96,36.88 256.26,37.3 			"/>
		</g>
		<g>
			<polygon class="st41" points="255.45,70.81 258.3,70.42 261.38,48.28 258.74,48.68 			"/>
		</g>
		<g>
			<g>
				<polygon class="st40" points="259.52,70.44 262.03,52.37 262.98,58.15 262.05,82.59 261.09,83.92 				"/>
				<polygon class="st9" points="261.09,48.28 258.01,70.42 260.04,87.94 263.53,83.1 264.48,58.05 263.13,49.8 261.09,48.28 				
					"/>
			</g>
		</g>
		<g>
			<polygon class="st9" points="257.51,88.31 260.34,87.94 258.3,70.42 255.45,70.81 			"/>
		</g>
		<g>
			<polygon class="st41" points="244.93,40.57 248.1,40.11 246.33,18.77 243.17,19.25 			"/>
		</g>
		<g>
			<polygon class="st9" points="254.05,57.51 256.91,57.11 248.1,40.11 244.93,40.57 			"/>
		</g>
		<g>
			<g>
				<polygon class="st40" points="249.28,39.69 247.66,20.14 250.3,19.92 256.78,42.22 257.09,51.99 256.46,53.54 				"/>
				<path class="st9" d="M249.31,21.88l5.98,20.58l0.19,5.92l-4.73-9.12L249.31,21.88 M251.4,18.32l-5.36,0.44l1.77,21.34l8.81,17
					l1.98-4.84l-0.33-10.27L251.4,18.32L251.4,18.32z"/>
			</g>
		</g>
		<g>
			<polygon class="st41" points="239.37,78.01 242.9,77.57 245.58,53.61 242.26,54.07 			"/>
		</g>
		<g>
			<g>
				<polygon class="st40" points="244.16,77.22 246.62,55.23 251.28,55.6 253.38,63.73 253.11,75.09 249.04,85.1 				"/>
				<path class="st9" d="M247.95,56.84l2.15,0.17l1.79,6.9l-0.27,10.87l-2.85,7.03l-3.06-4.93L247.95,56.84 M245.29,53.61
					l-2.68,23.96l6.72,10.83l5.27-13.01l0.29-11.84l-2.43-9.37L245.29,53.61L245.29,53.61z"/>
			</g>
		</g>
		<g>
			<polygon class="st9" points="246.34,88.81 249.62,88.4 242.9,77.57 239.37,78.01 			"/>
		</g>
	</g>
	<path class="st42" d="M367.06,124.64l-98.75-7.4c-1.34-0.1-2.43-0.85-2.5-1.71l-7.34-60.89l125,10.46L367.06,124.64z"/>
	<polygon class="st43" points="258.47,54.86 278.84,22.86 372.36,28.86 383.47,64.86 	"/>
	<polygon class="st44" points="324.28,123.92 306.86,122.77 305.09,114.58 327.19,116.03 	"/>
	<path class="st45" d="M299.17,94.75c-1.08-8.13,7.93-15.46,20.11-14.47c11.89,0.97,18.35,9.25,15.35,16.8"/>
	<g>
		<g>
			<path class="st45" d="M333.74,103.01c-2.44,6.15-10.65,10-18.84,9.55c-8.32-0.46-15.75-5.31-16.62-11.88
				c-1.08-8.13,7.93-15.46,20.11-14.47C330.28,87.17,336.74,95.45,333.74,103.01z"/>
			<g>
				<g>
					<path class="st38" d="M325.23,102.31c-1.17,4.36-5.62,7.29-10.1,7.02c-4.52-0.27-8.23-3.73-8.25-8.24
						c-0.03-5.2,4.73-9.67,10.55-9.23C323.2,92.3,326.57,97.3,325.23,102.31z"/>
					<path class="st38" d="M316.29,98.48c-0.29,2.23-2.31,3.83-4.54,3.68c-2.24-0.15-4.06-2.01-4.04-4.28
						c0.02-2.43,2.09-4.36,4.61-4.18C314.83,93.89,316.6,96.09,316.29,98.48z"/>
					<path class="st38" d="M323.19,105.99c-0.45,1.79-2.41,3.08-4.4,2.96c-2-0.12-3.45-1.62-3.21-3.43c0.25-1.93,2.28-3.46,4.5-3.31
						C322.29,102.35,323.66,104.1,323.19,105.99z"/>
					<path class="st38" d="M313.72,104.36c-0.06,0.63-1.09,1.07-2.3,0.99c-1.21-0.08-2.18-0.64-2.16-1.28
						c0.02-0.65,1.06-1.11,2.31-1.03C312.82,103.12,313.78,103.72,313.72,104.36z"/>
				</g>
			</g>
		</g>
		<g>
			<path class="st1" d="M303.56,101.13c0.53,5.26,5.53,9.19,11.19,9.47c5.6,0.28,12.75-1.96,14.63-8.32
				c2.49-8.41-5.57-11.86-13.12-12.37C308.6,89.4,302.93,94.91,303.56,101.13z"/>
			<path class="st46" d="M325.23,102.31c-1.17,4.36-5.62,7.29-10.1,7.02c-4.52-0.27-8.23-3.73-8.25-8.24
				c-0.03-5.2,4.73-9.67,10.55-9.23C323.2,92.3,326.57,97.3,325.23,102.31z"/>
			<path class="st1" d="M316.29,98.48c-0.29,2.23-2.31,3.83-4.54,3.68c-2.24-0.15-4.06-2.01-4.04-4.28
				c0.02-2.43,2.09-4.36,4.61-4.18C314.83,93.89,316.6,96.09,316.29,98.48z"/>
			<path class="st1" d="M323.19,105.99c-0.45,1.79-2.41,3.08-4.4,2.96c-2-0.12-3.45-1.62-3.21-3.43c0.25-1.93,2.28-3.46,4.5-3.31
				C322.29,102.35,323.66,104.1,323.19,105.99z"/>
			<path class="st1" d="M313.72,104.36c-0.06,0.63-1.09,1.07-2.3,0.99c-1.21-0.08-2.18-0.64-2.16-1.28
				c0.02-0.65,1.06-1.11,2.31-1.03C312.82,103.12,313.78,103.72,313.72,104.36z"/>
		</g>
		<path class="st47" d="M303.56,101.13c0.53,5.26,5.53,9.19,11.19,9.47c5.6,0.28,12.75-1.96,14.63-8.32
			c2.49-8.41-5.57-11.86-13.12-12.37C308.6,89.4,302.93,94.91,303.56,101.13z"/>
	</g>
	<g>
		<path class="st48" d="M335.97,74.36c3-7.55-1-17-15.69-18.07c-12.18-0.99-21.18,6.34-20.11,14.47l2.8,5.61c0,0,2.85-12,16-12
			c14,0,14,14,14,14L335.97,74.36z"/>
		<path class="st48" d="M300.17,75.75c-1.08-8.13,7.93-15.46,20.11-14.47c11.89,0.97,18.69,9.52,15.69,17.07L332,79.2
			c2.36-5.93-2.72-12.44-12.06-13.2c-9.56-0.78-16.64,4.98-15.8,11.36L300.17,75.75z"/>
	</g>
</g>
<g>
</g>
<g>
</g>
<g>
</g>
<g>
</g>
<g>
</g>
<g>
</g>
<g>
</g>
<g>
</g>
<g>
</g>
<g>
</g>
<g>
</g>
<g>
</g>
<g>
</g>
<g>
</g>
<g>
</g>
</svg>
